<svg xmlns="http://www.w3.org/2000/svg" viewBox="0 0 909.96 653.56"><g id="Layer_2" data-name="Layer 2"><g id="Layer_1-2" data-name="Layer 1"><path d="M80.6,12.82h1.64v1.45H80.41L80,18.05H78.52L79,14.27H76l-.45,3.78H74.12l.46-3.78H73V12.82h1.77l.62-4.94H73.73V6.42h1.81L76,2.7h1.46L77,6.42h3l.44-3.72h1.46l-.47,3.72H83V7.88H81.2Zm-1.45,0,.62-4.94h-3l-.6,4.94Z"/><path d="M92.76,12.82H94.4v1.45H92.57l-.43,3.78H90.68l.46-3.78h-3l-.45,3.78H86.28l.46-3.78h-1.6V12.82h1.77l.62-4.94H85.89V6.42H87.7l.45-3.72h1.46l-.49,3.72h3l.45-3.72H94l-.48,3.72h1.62V7.88H93.36Zm-1.45,0,.62-4.94H89l-.6,4.94Z"/><path d="M104.92,12.82h1.64v1.45h-1.83l-.43,3.78h-1.46l.46-3.78h-3l-.45,3.78H98.44l.46-3.78H97.3V12.82h1.77l.62-4.94H98.05V6.42h1.81l.45-3.72h1.46l-.49,3.72h3l.45-3.72h1.46l-.48,3.72h1.62V7.88h-1.79Zm-1.45,0,.62-4.94h-3l-.6,4.94Z"/><path d="M117.08,12.82h1.64v1.45h-1.83l-.43,3.78H115l.46-3.78h-2.95l-.45,3.78h-1.45l.45-3.78h-1.6V12.82h1.77l.62-4.94h-1.64V6.42H112l.45-3.72h1.46l-.49,3.72h3l.45-3.72h1.46l-.48,3.72h1.62V7.88h-1.79Zm-1.45,0,.62-4.94h-3l-.6,4.94Z"/><path d="M129.24,12.82h1.64v1.45h-1.83l-.43,3.78h-1.46l.46-3.78h-3l-.44,3.78h-1.46l.45-3.78h-1.6V12.82h1.77L124,7.88h-1.64V6.42h1.82l.44-3.72h1.46l-.49,3.72h3L129,2.7h1.46L130,6.42h1.62V7.88h-1.79Zm-1.45,0,.62-4.94h-3l-.6,4.94Z"/><path d="M141.4,12.82h1.65v1.45h-1.84l-.42,3.78h-1.46l.45-3.78h-2.95l-.44,3.78h-1.46l.45-3.78h-1.6V12.82h1.78l.61-4.94h-1.64V6.42h1.82l.44-3.72h1.46l-.48,3.72h3l.45-3.72h1.46l-.48,3.72h1.63V7.88H142Zm-1.45,0,.62-4.94h-3L137,12.82Z"/><path d="M153.56,12.82h1.65v1.45h-1.84L153,18.05h-1.46l.45-3.78H149l-.44,3.78h-1.46l.45-3.78h-1.6V12.82h1.78l.62-4.94h-1.65V6.42h1.82L149,2.7h1.46l-.48,3.72h3l.44-3.72h1.46l-.48,3.72H156V7.88h-1.8Zm-1.44,0,.61-4.94h-3l-.59,4.94Z"/><path d="M287.93,7.88l-.59,4.94H289v1.45h-1.84l-.42,3.78h-1.46l.46-3.78h-3l-.45,3.78h-1.46l.46-3.78H275l-.42,3.78H273.1l.45-3.78H270.6l-.44,3.78H268.7l.46-3.78h-1.61V12.82h1.78L270,7.88H268.3V6.42h1.82l.44-3.72H272l-.48,3.72h3L275,2.7h1.46L276,6.42h6.33l.45-3.72h1.45l-.48,3.72h3l.44-3.72h1.46l-.47,3.72h1.62V7.88Zm-13.59,0h-3l-.59,4.94h3Zm7.77,0h-6.34l-.59,4.94h6.31Zm4.4,0h-3l-.6,4.94h2.95Z"/><path d="M445.43,12.82h1.64v1.45h-1.83l-.43,3.78h-1.46l.46-3.78h-2.95l-.45,3.78H439l.45-3.78h-1.6V12.82h1.77l.62-4.94h-1.64V6.42h1.81l.45-3.72h1.46l-.49,3.72h3l.45-3.72h1.46l-.48,3.72h1.62V7.88H446Zm-1.45,0,.62-4.94h-3l-.6,4.94Z"/><path d="M457.59,12.82h1.64v1.45H457.4L457,18.05h-1.46l.46-3.78h-3l-.44,3.78h-1.46l.45-3.78H450V12.82h1.77l.62-4.94h-1.64V6.42h1.82L453,2.7h1.46L454,6.42h3l.45-3.72h1.46l-.48,3.72H460V7.88h-1.79Zm-1.45,0,.62-4.94h-3l-.6,4.94Z"/><path d="M469.75,12.82h1.65v1.45h-1.84l-.42,3.78h-1.46l.45-3.78h-2.95l-.44,3.78h-1.46l.45-3.78h-1.6V12.82h1.78l.61-4.94h-1.64V6.42h1.82l.44-3.72h1.46l-.48,3.72h3l.45-3.72H471l-.48,3.72h1.62V7.88h-1.79Zm-1.45,0,.62-4.94h-3l-.59,4.94Z"/><path d="M481.91,12.82h1.65v1.45h-1.84l-.42,3.78h-1.46l.45-3.78h-3l-.44,3.78h-1.46l.45-3.78h-1.6V12.82h1.78l.62-4.94H475V6.42h1.82l.44-3.72h1.46l-.48,3.72h3l.44-3.72h1.46l-.48,3.72h1.63V7.88h-1.8Zm-1.44,0,.61-4.94h-3l-.59,4.94Z"/><path d="M494.08,12.82h1.64v1.45h-1.84l-.42,3.78H492l.45-3.78H489.5l-.44,3.78H487.6l.46-3.78h-1.61V12.82h1.78l.62-4.94H487.2V6.42H489l.44-3.72h1.46l-.48,3.72h3l.44-3.72h1.46l-.47,3.72h1.62V7.88h-1.8Zm-1.45,0,.61-4.94h-3l-.6,4.94Z"/><path d="M510.77,19.68,519.44,0l1.36.74-8.66,19.61Z"/><path d="M543.32,7.88l-.6,4.94h1.64v1.45h-1.83l-.43,3.78h-1.46l.46-3.78h-3l-.45,3.78h-1.46l.46-3.78h-6.33l-.43,3.78h-1.46l.46-3.78h-3l-.45,3.78h-1.46l.46-3.78h-1.6V12.82h1.77l.62-4.94h-1.64V6.42h1.81L526,2.7h1.46l-.49,3.72h3l.45-3.72h1.46l-.48,3.72h6.33l.45-3.72h1.46l-.49,3.72h3l.45-3.72H544l-.48,3.72h1.62V7.88Zm-13.59,0h-3l-.6,4.94h3Zm7.76,0h-6.33l-.6,4.94h6.31Zm4.4,0h-3l-.6,4.94h2.95Z"/><path d="M640,12.82h1.64v1.45h-1.83l-.43,3.78h-1.46l.46-3.78h-2.95L635,18.05h-1.46l.46-3.78h-1.6V12.82h1.77l.62-4.94h-1.64V6.42H635l.45-3.72h1.46l-.49,3.72h3l.45-3.72h1.46l-.48,3.72h1.62V7.88h-1.79Zm-1.45,0,.62-4.94h-3l-.6,4.94Z"/><path d="M689.25,7.88l-.6,4.94h1.65v1.45h-1.84L688,18.05h-1.46l.45-3.78h-2.95l-.44,3.78h-1.46l.45-3.78H676.3l-.43,3.78h-1.46l.46-3.78h-3l-.44,3.78H670l.45-3.78h-6.33l-.43,3.78h-1.46l.46-3.78h-3l-.45,3.78h-1.46l.46-3.78h-1.6V12.82h1.77l.62-4.94h-1.64V6.42h1.81l.45-3.72h1.46l-.49,3.72h3l.45-3.72h1.46l-.48,3.72h6.33l.45-3.72h1.46l-.49,3.72h3l.45-3.72h1.46l-.48,3.72h6.34L684,2.7h1.46L685,6.42h3l.45-3.72h1.46l-.48,3.72H691V7.88Zm-25.75,0h-3l-.6,4.94h3Zm7.76,0h-6.33l-.6,4.94h6.31Zm4.4,0h-3l-.6,4.94H675Zm7.76,0h-6.33l-.6,4.94h6.32Zm4.4,0h-3l-.59,4.94h2.94Z"/><path d="M823,7.88l-.59,4.94h1.64v1.45h-1.84l-.42,3.78h-1.46l.45-3.78h-2.95l-.44,3.78H816l.46-3.78h-6.34l-.42,3.78h-1.46l.45-3.78h-2.95l-.44,3.78h-1.46l.45-3.78h-1.6V12.82h1.78L805,7.88h-1.64V6.42h1.82l.44-3.72h1.46l-.48,3.72h3l.44-3.72h1.46L811,6.42h6.34l.44-3.72h1.46l-.48,3.72h3l.44-3.72h1.46l-.47,3.72h1.62V7.88Zm-13.59,0h-3l-.59,4.94h3Zm7.77,0h-6.34l-.6,4.94h6.32Zm4.39,0h-3l-.6,4.94h3Z"/><path d="M48.64,59.2l8.68-19.68,1.36.74L50,59.87Z"/><path d="M178.48,47.41l-.59,4.93h1.64v1.45h-1.84l-.42,3.78h-1.46l.46-3.78h-3l-.45,3.78h-1.46l.46-3.78h-6.34l-.42,3.78h-1.46l.45-3.78h-2.95l-.44,3.78h-1.46l.46-3.78h-6.34L153,57.57h-1.46l.45-3.78H149l-.44,3.78h-1.46l.45-3.78h-1.6V52.34h1.78l.61-4.93h-1.64V46h1.82l.44-3.73h1.46L149.93,46h3l.44-3.73h1.46L154.33,46h6.34l.44-3.73h1.46L162.09,46h3l.44-3.73H167L166.5,46h6.33l.45-3.73h1.45L174.25,46h3l.44-3.73h1.46L178.66,46h1.62v1.46Zm-25.75,0h-3l-.59,4.93h2.94Zm7.77,0h-6.34l-.6,4.93h6.32Zm4.39,0h-3l-.59,4.93h2.95Zm7.77,0h-6.34l-.59,4.93H172Zm4.4,0h-3l-.6,4.93h2.95Z"/><path d="M231.06,59.2l8.68-19.68,1.35.74-8.65,19.61Z"/><path d="M287.93,47.41l-.59,4.93H289v1.45h-1.84l-.42,3.78h-1.46l.46-3.78h-3l-.45,3.78h-1.46l.46-3.78H275l-.42,3.78H273.1l.45-3.78H270.6l-.44,3.78H268.7l.46-3.78h-6.34l-.42,3.78h-1.46l.45-3.78h-2.95L258,57.57h-1.46l.45-3.78h-6.33l-.43,3.78h-1.46l.46-3.78h-2.95l-.44,3.78h-1.46l.45-3.78h-1.6V52.34H245l.61-4.93H244V46h1.82l.44-3.73h1.46L247.21,46h3l.45-3.73h1.46L251.62,46H258l.44-3.73h1.46L259.38,46h3l.44-3.73h1.46L263.78,46h6.34l.44-3.73H272L271.54,46h3l.44-3.73h1.46L276,46h6.33l.45-3.73h1.45L283.7,46h3l.44-3.73h1.46L288.11,46h1.62v1.46Zm-37.91,0h-3l-.6,4.93h3Zm7.76,0h-6.33l-.6,4.93h6.32Zm4.4,0h-3l-.59,4.93h2.94Zm7.77,0h-6.34l-.6,4.93h6.32Zm4.39,0h-3l-.59,4.93h3Zm7.77,0h-6.34l-.59,4.93h6.31Zm4.4,0h-3l-.6,4.93h2.95Z"/><path d="M409,52.34h1.64v1.45h-1.83l-.43,3.78h-1.46l.46-3.78h-2.95l-.45,3.78h-1.46l.46-3.78h-1.6V52.34h1.77l.62-4.93h-1.64V46h1.81l.45-3.73h1.46L405.31,46h3l.45-3.73h1.45L409.72,46h1.62v1.46h-1.79Zm-1.45,0,.62-4.93h-3l-.6,4.93Z"/><path d="M421.11,52.34h1.64v1.45h-1.83l-.43,3.78H419l.46-3.78h-2.95l-.45,3.78h-1.46l.46-3.78h-1.6V52.34h1.77l.62-4.93h-1.64V46h1.81l.45-3.73H418L417.47,46h3l.45-3.73h1.46L421.88,46h1.62v1.46h-1.79Zm-1.45,0,.62-4.93h-3l-.6,4.93Z"/><path d="M433.27,52.34h1.64v1.45h-1.83l-.43,3.78h-1.46l.46-3.78H428.7l-.45,3.78h-1.46l.46-3.78h-1.6V52.34h1.77l.62-4.93H426.4V46h1.81l.45-3.73h1.46L429.63,46h3l.45-3.73h1.46L434,46h1.62v1.46h-1.79Zm-1.45,0,.62-4.93h-3l-.6,4.93Z"/><path d="M445.43,52.34h1.64v1.45h-1.83l-.43,3.78h-1.46l.46-3.78h-2.95l-.45,3.78H439l.45-3.78h-1.6V52.34h1.77l.62-4.93h-1.64V46h1.81l.45-3.73h1.46L441.79,46h3l.45-3.73h1.46L446.2,46h1.62v1.46H446Zm-1.45,0,.62-4.93h-3l-.6,4.93Z"/><path d="M457.59,52.34h1.64v1.45H457.4L457,57.57h-1.46l.46-3.78h-3l-.44,3.78h-1.46l.45-3.78H450V52.34h1.77l.62-4.93h-1.64V46h1.82l.44-3.73h1.46L454,46h3l.45-3.73h1.46L458.36,46H460v1.46h-1.79Zm-1.45,0,.62-4.93h-3l-.6,4.93Z"/><path d="M469.75,52.34h1.65v1.45h-1.84l-.42,3.78h-1.46l.45-3.78h-2.95l-.44,3.78h-1.46l.45-3.78h-1.6V52.34h1.78l.61-4.93h-1.64V46h1.82l.44-3.73h1.46L466.12,46h3l.45-3.73H471L470.52,46h1.62v1.46h-1.79Zm-1.45,0,.62-4.93h-3l-.59,4.93Z"/><path d="M498.61,59.2l8.67-19.68,1.36.74L500,59.87Z"/><path d="M543.32,47.41l-.6,4.93h1.64v1.45h-1.83l-.43,3.78h-1.46l.46-3.78h-3l-.45,3.78h-1.46l.46-3.78h-6.33l-.43,3.78h-1.46l.46-3.78h-3l-.45,3.78h-1.46l.46-3.78h-1.6V52.34h1.77l.62-4.93h-1.64V46h1.81l.45-3.73h1.46L526.92,46h3l.45-3.73h1.46L531.33,46h6.33l.45-3.73h1.46L539.08,46h3l.45-3.73H544L543.49,46h1.62v1.46Zm-13.59,0h-3l-.6,4.93h3Zm7.76,0h-6.33l-.6,4.93h6.31Zm4.4,0h-3l-.6,4.93h2.95Z"/><path d="M608.06,59.2l8.67-19.68,1.36.74-8.66,19.61Z"/><path d="M644.54,59.2l8.67-19.68,1.36.74-8.65,19.61Z"/><path d="M689.25,47.41l-.6,4.93h1.65v1.45h-1.84L688,57.57h-1.46l.45-3.78h-2.95l-.44,3.78h-1.46l.45-3.78H676.3l-.43,3.78h-1.46l.46-3.78h-3l-.44,3.78H670l.45-3.78h-6.33l-.43,3.78h-1.46l.46-3.78h-3l-.45,3.78h-1.46l.46-3.78h-1.6V52.34h1.77l.62-4.93h-1.64V46h1.81l.45-3.73h1.46L660.69,46h3l.45-3.73h1.46L665.1,46h6.33l.45-3.73h1.46L672.85,46h3l.45-3.73h1.46L677.26,46h6.34l.44-3.73h1.46L685,46h3l.45-3.73h1.46L689.42,46H691v1.46Zm-25.75,0h-3l-.6,4.93h3Zm7.76,0h-6.33l-.6,4.93h6.31Zm4.4,0h-3l-.6,4.93H675Zm7.76,0h-6.33l-.6,4.93h6.32Zm4.4,0h-3l-.59,4.93h2.94Z"/><path d="M717.51,59.2l8.67-19.68,1.36.74-8.66,19.61Z"/><path d="M766.15,59.2l8.68-19.68,1.35.74-8.65,19.61Z"/><path d="M823,47.41l-.59,4.93h1.64v1.45h-1.84l-.42,3.78h-1.46l.45-3.78h-2.95l-.44,3.78H816l.46-3.78h-6.34l-.42,3.78h-1.46l.45-3.78h-2.95l-.44,3.78h-1.46l.45-3.78h-6.33l-.43,3.78H796l.45-3.78h-3l-.44,3.78h-1.46l.45-3.78h-6.33l-.43,3.78h-1.46l.46-3.78h-3l-.45,3.78h-1.45l.45-3.78h-1.6V52.34h1.77l.62-4.93h-1.64V46h1.81l.45-3.73h1.46L782.3,46h3l.45-3.73h1.46L786.71,46h6.34l.44-3.73H795L794.46,46h3l.45-3.73h1.46L798.87,46h6.34l.44-3.73h1.46L806.63,46h3l.44-3.73h1.46L811,46h6.34l.44-3.73h1.46L818.79,46h3l.44-3.73h1.46L823.2,46h1.62v1.46Zm-37.91,0h-3l-.6,4.93h3Zm7.76,0h-6.33l-.6,4.93h6.32Zm4.4,0h-3l-.6,4.93h2.95Zm7.76,0H798.7l-.6,4.93h6.32Zm4.4,0h-3l-.59,4.93h3Zm7.77,0h-6.34l-.6,4.93h6.32Zm4.39,0h-3l-.6,4.93h3Z"/><path d="M36.48,98.73l8.68-19.68,1.36.73L37.86,99.39Z"/><path d="M178.48,86.93l-.59,4.94h1.64v1.45h-1.84l-.42,3.78h-1.46l.46-3.78h-3l-.45,3.78h-1.46l.46-3.78h-6.34l-.42,3.78h-1.46l.45-3.78h-2.95l-.44,3.78h-1.46l.46-3.78H158.1V91.87h1.78l.62-4.94h-1.65V85.47h1.82l.44-3.72h1.46l-.48,3.72h3l.44-3.72H167l-.47,3.72h6.33l.45-3.72h1.45l-.48,3.72h3l.44-3.72h1.46l-.47,3.72h1.62v1.46Zm-13.59,0h-3l-.59,4.94h2.95Zm7.77,0h-6.34l-.59,4.94H172Zm4.4,0h-3l-.6,4.94h2.95Z"/><path d="M218.9,98.73l8.67-19.68,1.36.73-8.65,19.61Z"/><path d="M287.93,86.93l-.59,4.94H289v1.45h-1.84l-.42,3.78h-1.46l.46-3.78h-3l-.45,3.78h-1.46l.46-3.78H275l-.42,3.78H273.1l.45-3.78H270.6l-.44,3.78H268.7l.46-3.78h-6.34l-.42,3.78h-1.46l.45-3.78h-2.95L258,97.1h-1.46l.45-3.78h-1.6V91.87h1.78l.61-4.94h-1.64V85.47H258l.44-3.72h1.46l-.48,3.72h3l.44-3.72h1.46l-.48,3.72h6.34l.44-3.72H272l-.48,3.72h3l.44-3.72h1.46L276,85.47h6.33l.45-3.72h1.45l-.48,3.72h3l.44-3.72h1.46l-.47,3.72h1.62v1.46Zm-25.75,0h-3l-.59,4.94h2.94Zm7.77,0h-6.34l-.6,4.94h6.32Zm4.39,0h-3l-.59,4.94h3Zm7.77,0h-6.34l-.59,4.94h6.31Zm4.4,0h-3l-.6,4.94h2.95Z"/><path d="M389.16,98.73l8.67-19.68,1.36.73-8.66,19.61Z"/><path d="M409,91.87h1.64v1.45h-1.83l-.43,3.78h-1.46l.46-3.78h-2.95l-.45,3.78h-1.46l.46-3.78h-1.6V91.87h1.77l.62-4.94h-1.64V85.47h1.81l.45-3.72h1.46l-.49,3.72h3l.45-3.72h1.45l-.47,3.72h1.62v1.46h-1.79Zm-1.45,0,.62-4.94h-3l-.6,4.94Z"/><path d="M450,98.73l8.68-19.68,1.35.73-8.65,19.61Z"/><path d="M486.44,98.73l8.68-19.68,1.36.73-8.66,19.61Z"/><path d="M543.32,86.93l-.6,4.94h1.64v1.45h-1.83l-.43,3.78h-1.46l.46-3.78h-3l-.45,3.78h-1.46l.46-3.78h-6.33l-.43,3.78h-1.46l.46-3.78h-3l-.45,3.78h-1.46l.46-3.78h-1.6V91.87h1.77l.62-4.94h-1.64V85.47h1.81l.45-3.72h1.46l-.49,3.72h3l.45-3.72h1.46l-.48,3.72h6.33l.45-3.72h1.46l-.49,3.72h3l.45-3.72H544l-.48,3.72h1.62v1.46Zm-13.59,0h-3l-.6,4.94h3Zm7.76,0h-6.33l-.6,4.94h6.31Zm4.4,0h-3l-.6,4.94h2.95Z"/><path d="M595.89,98.73l8.68-19.68,1.36.73-8.66,19.61Z"/><path d="M632.38,98.73l8.67-19.68,1.36.73-8.65,19.61Z"/><path d="M701.41,86.93l-.6,4.94h1.65v1.45h-1.84l-.42,3.78h-1.46l.45-3.78h-3l-.44,3.78h-1.46l.45-3.78h-6.33L688,97.1h-1.46l.45-3.78h-2.95l-.44,3.78h-1.46l.45-3.78H676.3l-.43,3.78h-1.46l.46-3.78h-3l-.44,3.78H670l.45-3.78h-1.6V91.87h1.77l.62-4.94h-1.64V85.47h1.81l.45-3.72h1.46l-.49,3.72h3l.45-3.72h1.46l-.48,3.72h6.34l.44-3.72h1.46L685,85.47h3l.45-3.72h1.46l-.48,3.72h6.34l.44-3.72h1.46l-.48,3.72h3l.44-3.72h1.46l-.48,3.72h1.63v1.46Zm-25.75,0h-3l-.6,4.94H675Zm7.76,0h-6.33l-.6,4.94h6.32Zm4.4,0h-3l-.6,4.94h3Zm7.77,0h-6.34l-.6,4.94H695Zm4.39,0h-3l-.59,4.94h3Z"/><path d="M705.34,98.73,714,79.05l1.36.73-8.66,19.61Z"/><path d="M754,98.73l8.67-19.68,1.36.73-8.65,19.61Z"/><path d="M823,86.93l-.59,4.94h1.64v1.45h-1.84l-.42,3.78h-1.46l.45-3.78h-2.95l-.44,3.78H816l.46-3.78h-6.34l-.42,3.78h-1.46l.45-3.78h-2.95l-.44,3.78h-1.46l.45-3.78h-6.33l-.43,3.78H796l.45-3.78h-3l-.44,3.78h-1.46l.45-3.78h-1.6V91.87h1.78l.61-4.94h-1.64V85.47h1.82l.44-3.72H795l-.49,3.72h3l.45-3.72h1.46l-.48,3.72h6.34l.44-3.72h1.46l-.48,3.72h3l.44-3.72h1.46L811,85.47h6.34l.44-3.72h1.46l-.48,3.72h3l.44-3.72h1.46l-.47,3.72h1.62v1.46Zm-25.75,0h-3l-.6,4.94h2.95Zm7.76,0H798.7l-.6,4.94h6.32Zm4.4,0h-3l-.59,4.94h3Zm7.77,0h-6.34l-.6,4.94h6.32Zm4.39,0h-3l-.6,4.94h3Z"/><path d="M56.87,126.46l-.59,4.93h1.64v1.45H56.08l-.42,3.78H54.2l.45-3.78H51.7l-.44,3.78H49.8l.46-3.78H43.92l-.42,3.78H42l.45-3.78h-3l-.44,3.78H37.64l.45-3.78h-1.6v-1.45h1.78l.61-4.93H37.24V125h1.82l.44-3.72H41L40.48,125h3l.44-3.72h1.46L44.88,125h6.34l.44-3.72h1.46L52.64,125h3l.44-3.72h1.46L57.05,125h1.62v1.47Zm-13.59,0h-3l-.59,4.93h3Zm7.77,0H44.71l-.6,4.93h6.32Zm4.39,0h-3l-.6,4.93h2.95Z"/><path d="M165.73,131.39h1.64v1.45h-1.84l-.42,3.78h-1.46l.45-3.78h-2.95l-.44,3.78h-1.46l.46-3.78H158.1v-1.45h1.78l.62-4.93h-1.65V125h1.82l.44-3.72h1.46l-.48,3.72h3l.44-3.72H167L166.5,125h1.62v1.47h-1.8Zm-1.45,0,.61-4.93h-3l-.6,4.93Z"/><path d="M255.38,138.25l8.68-19.68,1.36.74-8.66,19.61Z"/><path d="M287.93,126.46l-.59,4.93H289v1.45h-1.84l-.42,3.78h-1.46l.46-3.78h-3l-.45,3.78h-1.46l.46-3.78H275l-.42,3.78H273.1l.45-3.78H270.6l-.44,3.78H268.7l.46-3.78h-1.61v-1.45h1.78l.62-4.93H268.3V125h1.82l.44-3.72H272l-.48,3.72h3l.44-3.72h1.46L276,125h6.33l.45-3.72h1.45L283.7,125h3l.44-3.72h1.46l-.47,3.72h1.62v1.47Zm-13.59,0h-3l-.59,4.93h3Zm7.77,0h-6.34l-.59,4.93h6.31Zm4.4,0h-3l-.6,4.93h2.95Z"/><path d="M377,138.25l8.68-19.68,1.36.74-8.66,19.61Z"/><path d="M437.8,138.25l8.67-19.68,1.36.74-8.65,19.61Z"/><path d="M474.28,138.25,483,118.57l1.36.74-8.66,19.61Z"/><path d="M543.32,126.46l-.6,4.93h1.64v1.45h-1.83l-.43,3.78h-1.46l.46-3.78h-3l-.45,3.78h-1.46l.46-3.78h-6.33l-.43,3.78h-1.46l.46-3.78h-3l-.45,3.78h-1.46l.46-3.78h-1.6v-1.45h1.77l.62-4.93h-1.64V125h1.81l.45-3.72h1.46l-.49,3.72h3l.45-3.72h1.46l-.48,3.72h6.33l.45-3.72h1.46l-.49,3.72h3l.45-3.72H544l-.48,3.72h1.62v1.47Zm-13.59,0h-3l-.6,4.93h3Zm7.76,0h-6.33l-.6,4.93h6.31Zm4.4,0h-3l-.6,4.93h2.95Z"/><path d="M583.73,138.25l8.68-19.68,1.36.74-8.66,19.61Z"/><path d="M640.61,126.46l-.6,4.93h1.64v1.45h-1.83l-.43,3.78h-1.46l.46-3.78h-2.95l-.45,3.78h-1.46l.46-3.78h-6.33l-.43,3.78h-1.46l.46-3.78h-3l-.45,3.78h-1.46l.46-3.78h-1.6v-1.45H622l.62-4.93H621V125h1.81l.45-3.72h1.46l-.49,3.72h3l.44-3.72h1.46l-.47,3.72H635l.45-3.72h1.46l-.49,3.72h3l.45-3.72h1.46l-.48,3.72h1.62v1.47Zm-13.59,0h-3l-.6,4.93h2.95Zm7.76,0h-6.33l-.6,4.93h6.31Zm4.4,0h-3l-.6,4.93h2.95Z"/><path d="M701.41,126.46l-.6,4.93h1.65v1.45h-1.84l-.42,3.78h-1.46l.45-3.78h-3l-.44,3.78h-1.46l.45-3.78h-6.33l-.42,3.78h-1.46l.45-3.78h-2.95l-.44,3.78h-1.46l.45-3.78H681v-1.45h1.78l.61-4.93h-1.64V125h1.82l.44-3.72h1.46L685,125h3l.45-3.72h1.46l-.48,3.72h6.34l.44-3.72h1.46l-.48,3.72h3l.44-3.72h1.46l-.48,3.72h1.63v1.47Zm-13.59,0h-3l-.6,4.93h3Zm7.77,0h-6.34l-.6,4.93H695Zm4.39,0h-3l-.59,4.93h3Z"/><path d="M790.47,138.25l8.68-19.68,1.36.74-8.66,19.61Z"/><path d="M823,126.46l-.59,4.93h1.64v1.45h-1.84l-.42,3.78h-1.46l.45-3.78h-2.95l-.44,3.78H816l.46-3.78h-6.34l-.42,3.78h-1.46l.45-3.78h-2.95l-.44,3.78h-1.46l.45-3.78h-1.6v-1.45h1.78l.61-4.93h-1.64V125h1.82l.44-3.72h1.46l-.48,3.72h3l.44-3.72h1.46L811,125h6.34l.44-3.72h1.46l-.48,3.72h3l.44-3.72h1.46L823.2,125h1.62v1.47Zm-13.59,0h-3l-.59,4.93h3Zm7.77,0h-6.34l-.6,4.93h6.32Zm4.39,0h-3l-.6,4.93h3Z"/><path d="M81.2,166l-.6,4.94h1.64v1.45H80.41L80,176.15H78.52l.46-3.78H76l-.45,3.78H74.12l.46-3.78H68.24l-.42,3.78H66.36l.45-3.78H63.87l-.45,3.78H62l.46-3.78H56.08l-.42,3.78H54.2l.45-3.78H51.7l-.44,3.78H49.8l.46-3.78H48.65v-1.45h1.78l.62-4.94H49.4v-1.46h1.82l.44-3.72h1.46l-.48,3.72h3l.44-3.72h1.46l-.47,3.72h6.33l.45-3.72h1.45l-.48,3.72h3l.44-3.72h1.46l-.47,3.72h6.33L76,160.8h1.46L77,164.52h3l.44-3.72h1.46l-.47,3.72H83V166Zm-25.76,0h-3l-.59,4.94h2.95Zm7.77,0H56.87l-.6,4.94h6.32Zm4.4,0h-3l-.6,4.94H67Zm7.76,0H69l-.59,4.94h6.31Zm4.4,0h-3l-.6,4.94h3Z"/><path d="M243.22,177.77l8.68-19.67,1.36.73-8.66,19.61Z"/><path d="M300.1,166l-.6,4.94h1.64v1.45h-1.83l-.43,3.78h-1.46l.46-3.78h-2.95l-.45,3.78H293l.46-3.78h-6.34l-.42,3.78h-1.46l.45-3.78h-2.94l-.45,3.78h-1.46l.46-3.78h-1.6v-1.45h1.77l.62-4.94h-1.64v-1.46h1.81l.45-3.72h1.45l-.48,3.72h3l.44-3.72h1.46l-.47,3.72h6.33l.45-3.72h1.46l-.49,3.72h3l.44-3.72h1.46l-.47,3.72h1.62V166Zm-13.59,0h-3l-.6,4.94h2.95Zm7.76,0h-6.34l-.59,4.94h6.31Zm4.4,0h-3l-.6,4.94h2.95Z"/><path d="M425.64,177.77l8.67-19.67,1.36.73L427,178.44Z"/><path d="M462.12,177.77l8.68-19.67,1.36.73-8.66,19.61Z"/><path d="M522.93,177.77l8.67-19.67,1.36.73-8.65,19.61Z"/><path d="M571.57,177.77l8.68-19.67,1.36.73L573,178.44Z"/><path d="M640.61,166l-.6,4.94h1.64v1.45h-1.83l-.43,3.78h-1.46l.46-3.78h-2.95l-.45,3.78h-1.46l.46-3.78h-6.33l-.43,3.78h-1.46l.46-3.78h-3l-.45,3.78h-1.46l.46-3.78h-6.34l-.42,3.78h-1.46l.45-3.78h-2.94l-.45,3.78h-1.46l.46-3.78h-1.6v-1.45h1.77l.62-4.94h-1.64v-1.46h1.81l.45-3.72h1.45l-.48,3.72h3l.44-3.72h1.46l-.47,3.72h6.33l.45-3.72h1.46l-.49,3.72h3l.44-3.72h1.46l-.47,3.72H635l.45-3.72h1.46l-.49,3.72h3l.45-3.72h1.46l-.48,3.72h1.62V166Zm-25.75,0h-3l-.6,4.94h3Zm7.76,0h-6.34l-.59,4.94H622Zm4.4,0h-3l-.6,4.94h2.95Zm7.76,0h-6.33l-.6,4.94h6.31Zm4.4,0h-3l-.6,4.94h2.95Z"/><path d="M778.31,177.77,787,158.1l1.35.73-8.65,19.61Z"/><path d="M835.18,166l-.59,4.94h1.64v1.45h-1.84l-.42,3.78h-1.46l.46-3.78h-3l-.45,3.78h-1.46l.46-3.78h-6.34l-.42,3.78h-1.46l.45-3.78h-2.95l-.44,3.78H816l.46-3.78H814.8v-1.45h1.78l.62-4.94h-1.65v-1.46h1.82l.44-3.72h1.46l-.48,3.72h3l.44-3.72h1.46l-.47,3.72h6.33l.45-3.72h1.45l-.48,3.72h3l.44-3.72h1.46l-.47,3.72H837V166Zm-13.59,0h-3l-.59,4.94h3Zm7.77,0H823l-.59,4.94h6.31Zm4.4,0h-3l-.6,4.94h2.95Z"/><path d="M56.87,205.5l-.59,4.94h1.64v1.45H56.08l-.42,3.78H54.2l.45-3.78H51.7l-.44,3.78H49.8l.46-3.78H43.92l-.42,3.78H42l.45-3.78h-3l-.44,3.78H37.64l.45-3.78h-1.6v-1.45h1.78l.61-4.94H37.24V204h1.82l.44-3.72H41L40.48,204h3l.44-3.72h1.46L44.88,204h6.34l.44-3.72h1.46L52.64,204h3l.44-3.72h1.46L57.05,204h1.62v1.46Zm-13.59,0h-3l-.59,4.94h3Zm7.77,0H44.71l-.6,4.94h6.32Zm4.39,0h-3l-.6,4.94h2.95Z"/><path d="M105.52,205.5l-.6,4.94h1.64v1.45h-1.83l-.43,3.78h-1.46l.46-3.78h-3l-.45,3.78H98.44l.46-3.78H92.57l-.43,3.78H90.68l.46-3.78h-3l-.45,3.78H86.28l.46-3.78H80.4L80,215.67H78.52l.46-3.78H76l-.45,3.78H74.12l.46-3.78H73v-1.45h1.77l.62-4.94H73.73V204h1.81l.45-3.72h1.46L77,204h3l.44-3.72h1.46L81.37,204H87.7l.45-3.72h1.46L89.12,204h3l.45-3.72H94L93.53,204h6.33l.45-3.72h1.46l-.49,3.72h3l.45-3.72h1.46l-.48,3.72h1.62v1.46Zm-25.75,0h-3l-.6,4.94h3Zm7.76,0H81.2l-.6,4.94h6.31Zm4.4,0H89l-.6,4.94h3Zm7.76,0H93.36l-.6,4.94h6.31Zm4.4,0h-3l-.6,4.94h3Z"/><path d="M243.22,217.3l8.68-19.68,1.36.74L244.6,218Z"/><path d="M300.1,205.5l-.6,4.94h1.64v1.45h-1.83l-.43,3.78h-1.46l.46-3.78h-2.95l-.45,3.78H293l.46-3.78h-6.34l-.42,3.78h-1.46l.45-3.78h-2.94l-.45,3.78h-1.46l.46-3.78h-1.6v-1.45h1.77l.62-4.94h-1.64V204h1.81l.45-3.72h1.45L283.7,204h3l.44-3.72h1.46l-.47,3.72h6.33l.45-3.72h1.46l-.49,3.72h3l.44-3.72h1.46l-.47,3.72h1.62v1.46Zm-13.59,0h-3l-.6,4.94h2.95Zm7.76,0h-6.34l-.59,4.94h6.31Zm4.4,0h-3l-.6,4.94h2.95Z"/><path d="M433.87,205.5l-.6,4.94h1.64v1.45h-1.83l-.43,3.78h-1.46l.46-3.78H428.7l-.45,3.78h-1.46l.46-3.78h-6.33l-.43,3.78H419l.46-3.78h-2.95l-.45,3.78h-1.46l.46-3.78h-1.6v-1.45h1.77l.62-4.94h-1.64V204h1.81l.45-3.72H418l-.49,3.72h3l.45-3.72h1.46l-.48,3.72h6.33l.45-3.72h1.46l-.49,3.72h3l.45-3.72h1.46L434,204h1.62v1.46Zm-13.59,0h-3l-.6,4.94h3Zm7.76,0h-6.33l-.6,4.94h6.31Zm4.4,0h-3l-.6,4.94h2.95Z"/><path d="M470.35,205.5l-.6,4.94h1.65v1.45h-1.84l-.42,3.78h-1.46l.45-3.78h-2.95l-.44,3.78h-1.46l.45-3.78H457.4l-.43,3.78h-1.46l.46-3.78h-3l-.44,3.78h-1.46l.45-3.78H450v-1.45h1.77l.62-4.94h-1.64V204h1.81l.45-3.72h1.46L454,204h3l.45-3.72h1.46l-.48,3.72h6.34l.44-3.72h1.46l-.48,3.72h3l.45-3.72H471l-.48,3.72h1.62v1.46Zm-13.59,0h-3l-.6,4.94h2.95Zm7.76,0h-6.33l-.6,4.94h6.32Zm4.4,0h-3l-.59,4.94h2.94Z"/><path d="M510.77,217.3l8.67-19.68,1.36.74L512.14,218Z"/><path d="M579.8,205.5l-.6,4.94h1.64v1.45H579l-.42,3.78h-1.46l.45-3.78h-3l-.44,3.78h-1.46l.45-3.78h-6.33l-.43,3.78H565l.46-3.78h-2.95l-.44,3.78h-1.46l.45-3.78h-1.6v-1.45h1.77l.62-4.94h-1.64V204H562l.45-3.72h1.46L563.4,204h3l.45-3.72h1.46l-.48,3.72h6.34l.44-3.72h1.46l-.48,3.72h3l.45-3.72h1.46L580,204h1.63v1.46Zm-13.59,0h-3l-.6,4.94h3Zm7.76,0h-6.33l-.6,4.94h6.32Zm4.4,0h-3l-.59,4.94h2.94Z"/><path d="M640.61,205.5l-.6,4.94h1.64v1.45h-1.83l-.43,3.78h-1.46l.46-3.78h-2.95l-.45,3.78h-1.46l.46-3.78h-6.33l-.43,3.78h-1.46l.46-3.78h-3l-.45,3.78h-1.46l.46-3.78h-1.6v-1.45H622l.62-4.94H621V204h1.81l.45-3.72h1.46l-.49,3.72h3l.44-3.72h1.46l-.47,3.72H635l.45-3.72h1.46l-.49,3.72h3l.45-3.72h1.46l-.48,3.72h1.62v1.46Zm-13.59,0h-3l-.6,4.94h2.95Zm7.76,0h-6.33l-.6,4.94h6.31Zm4.4,0h-3l-.6,4.94h2.95Z"/><path d="M778.31,217.3,787,197.62l1.35.74L779.69,218Z"/><path d="M835.18,205.5l-.59,4.94h1.64v1.45h-1.84l-.42,3.78h-1.46l.46-3.78h-3l-.45,3.78h-1.46l.46-3.78h-6.34l-.42,3.78h-1.46l.45-3.78h-2.95l-.44,3.78H816l.46-3.78H814.8v-1.45h1.78l.62-4.94h-1.65V204h1.82l.44-3.72h1.46l-.48,3.72h3l.44-3.72h1.46L823.2,204h6.33l.45-3.72h1.45L831,204h3l.44-3.72h1.46l-.47,3.72H837v1.46Zm-13.59,0h-3l-.59,4.94h3Zm7.77,0H823l-.59,4.94h6.31Zm4.4,0h-3l-.6,4.94h2.95Z"/><path d="M81.2,245,80.6,250h1.64v1.45H80.41L80,255.2H78.52l.46-3.78H76l-.45,3.78H74.12l.46-3.78H68.24l-.42,3.78H66.36l.45-3.78H63.87l-.45,3.78H62l.46-3.78H56.08l-.42,3.78H54.2l.45-3.78H51.7l-.44,3.78H49.8l.46-3.78H48.65V250h1.78l.62-4.94H49.4v-1.46h1.82l.44-3.73h1.46l-.48,3.73h3l.44-3.73h1.46l-.47,3.73h6.33l.45-3.73h1.45l-.48,3.73h3l.44-3.73h1.46l-.47,3.73h6.33l.45-3.73h1.46L77,243.57h3l.44-3.73h1.46l-.47,3.73H83V245Zm-25.76,0h-3L51.88,250h2.95Zm7.77,0H56.87l-.6,4.94h6.32Zm4.4,0h-3L64,250H67Zm7.76,0H69L68.44,250h6.31Zm4.4,0h-3L76.2,250h3Z"/><path d="M129.84,245l-.6,4.94h1.64v1.45h-1.83l-.43,3.78h-1.46l.46-3.78h-3l-.44,3.78h-1.46l.45-3.78h-6.33l-.43,3.78H115l.46-3.78h-2.95l-.45,3.78H110.6l.46-3.78h-6.33l-.43,3.78h-1.46l.46-3.78h-3l-.45,3.78H98.44l.46-3.78H97.3V250h1.77l.62-4.94H98.05v-1.46h1.81l.45-3.73h1.46l-.49,3.73h3l.45-3.73h1.46l-.48,3.73H112l.45-3.73h1.46l-.49,3.73h3l.45-3.73h1.46l-.48,3.73h6.34l.44-3.73h1.46l-.49,3.73h3l.45-3.73h1.46l-.48,3.73h1.62V245Zm-25.75,0h-3l-.6,4.94h3Zm7.76,0h-6.33l-.6,4.94h6.31Zm4.4,0h-3l-.6,4.94h2.95Zm7.76,0h-6.33l-.6,4.94h6.31Zm4.4,0h-3l-.6,4.94h3Z"/><path d="M231.06,256.82l8.68-19.67,1.35.73-8.65,19.61Z"/><path d="M312.26,245l-.6,4.94h1.64v1.45h-1.83L311,255.2h-1.46l.46-3.78h-3l-.45,3.78h-1.46l.46-3.78H299.3l-.42,3.78h-1.46l.46-3.78h-2.95l-.45,3.78H293l.46-3.78h-1.6V250h1.77l.62-4.94h-1.64v-1.46h1.81l.45-3.73h1.46l-.49,3.73h3l.44-3.73h1.46l-.47,3.73h6.33l.45-3.73h1.46l-.49,3.73h3l.45-3.73h1.46l-.48,3.73h1.62V245Zm-13.59,0h-3l-.6,4.94h2.95Zm7.76,0H300.1l-.6,4.94h6.31Zm4.4,0h-3l-.6,4.94h2.95Z"/><path d="M433.87,245l-.6,4.94h1.64v1.45h-1.83l-.43,3.78h-1.46l.46-3.78H428.7l-.45,3.78h-1.46l.46-3.78h-6.33l-.43,3.78H419l.46-3.78h-2.95l-.45,3.78h-1.46l.46-3.78h-1.6V250h1.77l.62-4.94h-1.64v-1.46h1.81l.45-3.73H418l-.49,3.73h3l.45-3.73h1.46l-.48,3.73h6.33l.45-3.73h1.46l-.49,3.73h3l.45-3.73h1.46l-.48,3.73h1.62V245Zm-13.59,0h-3l-.6,4.94h3Zm7.76,0h-6.33l-.6,4.94h6.31Zm4.4,0h-3l-.6,4.94h2.95Z"/><path d="M470.35,245l-.6,4.94h1.65v1.45h-1.84l-.42,3.78h-1.46l.45-3.78h-2.95l-.44,3.78h-1.46l.45-3.78H457.4L457,255.2h-1.46l.46-3.78h-3l-.44,3.78h-1.46l.45-3.78H450V250h1.77l.62-4.94h-1.64v-1.46h1.81l.45-3.73h1.46l-.49,3.73h3l.45-3.73h1.46l-.48,3.73h6.34l.44-3.73h1.46l-.48,3.73h3l.45-3.73H471l-.48,3.73h1.62V245Zm-13.59,0h-3l-.6,4.94h2.95Zm7.76,0h-6.33l-.6,4.94h6.32Zm4.4,0h-3l-.59,4.94h2.94Z"/><path d="M498.61,256.82l8.67-19.67,1.36.73L500,257.49Z"/><path d="M579.8,245l-.6,4.94h1.64v1.45H579l-.42,3.78h-1.46l.45-3.78h-3l-.44,3.78h-1.46l.45-3.78h-6.33l-.43,3.78H565l.46-3.78h-2.95L562,255.2h-1.46l.45-3.78h-1.6V250h1.77l.62-4.94h-1.64v-1.46H562l.45-3.73h1.46l-.49,3.73h3l.45-3.73h1.46l-.48,3.73h6.34l.44-3.73h1.46l-.48,3.73h3l.45-3.73h1.46l-.48,3.73h1.63V245Zm-13.59,0h-3l-.6,4.94h3Zm7.76,0h-6.33L567,250h6.32Zm4.4,0h-3l-.59,4.94h2.94Z"/><path d="M640.61,245,640,250h1.64v1.45h-1.83l-.43,3.78h-1.46l.46-3.78h-2.95L635,255.2h-1.46l.46-3.78h-6.33l-.43,3.78h-1.46l.46-3.78h-3l-.45,3.78h-1.46l.46-3.78h-1.6V250H622l.62-4.94H621v-1.46h1.81l.45-3.73h1.46l-.49,3.73h3l.44-3.73h1.46l-.47,3.73H635l.45-3.73h1.46l-.49,3.73h3l.45-3.73h1.46l-.48,3.73h1.62V245ZM627,245h-3l-.6,4.94h2.95Zm7.76,0h-6.33l-.6,4.94h6.31Zm4.4,0h-3l-.6,4.94h2.95Z"/><path d="M713.57,245,713,250h1.64v1.45h-1.84l-.42,3.78H710.9l.45-3.78h-3L708,255.2H706.5l.46-3.78h-6.34l-.42,3.78h-1.46l.45-3.78h-3l-.44,3.78h-1.46l.45-3.78h-6.33L688,255.2h-1.45l.45-3.78h-2.95l-.44,3.78h-1.46l.45-3.78H681V250h1.78l.61-4.94h-1.64v-1.46h1.82l.44-3.73h1.46l-.49,3.73h3l.45-3.73h1.46l-.48,3.73h6.34l.44-3.73h1.46l-.48,3.73h3l.44-3.73h1.46l-.48,3.73h6.34l.44-3.73h1.46l-.48,3.73h3l.44-3.73h1.46l-.47,3.73h1.62V245Zm-25.75,0h-3l-.6,4.94h3Zm7.76,0h-6.33l-.6,4.94H695Zm4.4,0h-3l-.59,4.94h3Zm7.77,0h-6.34l-.6,4.94h6.32Zm4.39,0h-3l-.6,4.94h2.95Z"/><path d="M766.15,256.82l8.68-19.67,1.35.73-8.65,19.61Z"/><path d="M847.35,245l-.6,4.94h1.64v1.45h-1.83l-.43,3.78h-1.46l.46-3.78h-3l-.45,3.78h-1.46l.46-3.78h-6.34L834,255.2h-1.46l.45-3.78H830l-.45,3.78h-1.46l.46-3.78H827V250h1.77l.62-4.94h-1.64v-1.46h1.81l.45-3.73h1.45l-.48,3.73h3l.44-3.73h1.46l-.47,3.73h6.33l.45-3.73h1.46l-.49,3.73h3l.45-3.73H848l-.47,3.73h1.62V245Zm-13.59,0h-3l-.6,4.94h2.95Zm7.76,0h-6.34l-.59,4.94h6.31Zm4.4,0h-3l-.6,4.94h2.95Z"/><path d="M105.52,284.55l-.6,4.94h1.64v1.45h-1.83l-.43,3.78h-1.46l.46-3.78h-3l-.45,3.78H98.44l.46-3.78H92.57l-.43,3.78H90.68l.46-3.78h-3l-.45,3.78H86.28l.46-3.78H80.4L80,294.72H78.52l.46-3.78H76l-.45,3.78H74.12l.46-3.78H73v-1.45h1.77l.62-4.94H73.73v-1.46h1.81l.45-3.72h1.46L77,283.09h3l.44-3.72h1.46l-.47,3.72H87.7l.45-3.72h1.46l-.49,3.72h3l.45-3.72H94l-.48,3.72h6.33l.45-3.72h1.46l-.49,3.72h3l.45-3.72h1.46l-.48,3.72h1.62v1.46Zm-25.75,0h-3l-.6,4.94h3Zm7.76,0H81.2l-.6,4.94h6.31Zm4.4,0H89l-.6,4.94h3Zm7.76,0H93.36l-.6,4.94h6.31Zm4.4,0h-3l-.6,4.94h3Z"/><path d="M154.16,284.55l-.6,4.94h1.65v1.45h-1.84l-.42,3.78h-1.46l.45-3.78H149l-.44,3.78h-1.46l.45-3.78h-6.33l-.42,3.78h-1.46l.45-3.78h-2.95l-.44,3.78h-1.46l.45-3.78h-6.33l-.43,3.78h-1.46l.46-3.78h-3l-.44,3.78h-1.46l.45-3.78h-1.6v-1.45h1.77l.62-4.94h-1.64v-1.46h1.81l.45-3.72h1.46l-.49,3.72h3l.45-3.72h1.46l-.48,3.72h6.34l.44-3.72h1.46l-.49,3.72h3l.45-3.72h1.46l-.48,3.72h6.34l.44-3.72h1.46l-.48,3.72h3l.44-3.72h1.46l-.48,3.72H156v1.46Zm-25.75,0h-3l-.6,4.94h3Zm7.76,0h-6.33l-.6,4.94h6.32Zm4.4,0h-3l-.6,4.94H140Zm7.77,0H142l-.6,4.94h6.32Zm4.39,0h-3l-.59,4.94h3Z"/><path d="M231.06,296.35l8.68-19.68,1.35.74L232.44,297Z"/><path d="M312.26,284.55l-.6,4.94h1.64v1.45h-1.83l-.43,3.78h-1.46l.46-3.78h-3l-.45,3.78h-1.46l.46-3.78H299.3l-.42,3.78h-1.46l.46-3.78h-2.95l-.45,3.78H293l.46-3.78h-1.6v-1.45h1.77l.62-4.94h-1.64v-1.46h1.81l.45-3.72h1.46l-.49,3.72h3l.44-3.72h1.46l-.47,3.72h6.33l.45-3.72h1.46l-.49,3.72h3l.45-3.72h1.46l-.48,3.72h1.62v1.46Zm-13.59,0h-3l-.6,4.94h2.95Zm7.76,0H300.1l-.6,4.94h6.31Zm4.4,0h-3l-.6,4.94h2.95Z"/><path d="M433.87,284.55l-.6,4.94h1.64v1.45h-1.83l-.43,3.78h-1.46l.46-3.78H428.7l-.45,3.78h-1.46l.46-3.78h-6.33l-.43,3.78H419l.46-3.78h-2.95l-.45,3.78h-1.46l.46-3.78h-1.6v-1.45h1.77l.62-4.94h-1.64v-1.46h1.81l.45-3.72H418l-.49,3.72h3l.45-3.72h1.46l-.48,3.72h6.33l.45-3.72h1.46l-.49,3.72h3l.45-3.72h1.46l-.48,3.72h1.62v1.46Zm-13.59,0h-3l-.6,4.94h3Zm7.76,0h-6.33l-.6,4.94h6.31Zm4.4,0h-3l-.6,4.94h2.95Z"/><path d="M482.51,284.55l-.6,4.94h1.65v1.45h-1.84l-.42,3.78h-1.46l.45-3.78h-3l-.44,3.78h-1.46l.45-3.78h-6.33l-.42,3.78h-1.46l.45-3.78h-2.95l-.44,3.78h-1.46l.45-3.78H457.4l-.43,3.78h-1.46l.46-3.78h-3l-.44,3.78h-1.46l.45-3.78H450v-1.45h1.77l.62-4.94h-1.64v-1.46h1.81l.45-3.72h1.46l-.49,3.72h3l.45-3.72h1.46l-.48,3.72h6.34l.44-3.72h1.46l-.49,3.72h3l.45-3.72H471l-.48,3.72h6.34l.44-3.72h1.46l-.48,3.72h3l.44-3.72h1.46l-.48,3.72h1.63v1.46Zm-25.75,0h-3l-.6,4.94h2.95Zm7.76,0h-6.33l-.6,4.94h6.32Zm4.4,0h-3l-.6,4.94h2.95Zm7.77,0h-6.34l-.6,4.94h6.32Zm4.39,0h-3l-.59,4.94h3Z"/><path d="M486.44,296.35l8.68-19.68,1.36.74L487.82,297Z"/><path d="M579.8,284.55l-.6,4.94h1.64v1.45H579l-.42,3.78h-1.46l.45-3.78h-3l-.44,3.78h-1.46l.45-3.78h-6.33l-.43,3.78H565l.46-3.78h-2.95l-.44,3.78h-1.46l.45-3.78h-1.6v-1.45h1.77l.62-4.94h-1.64v-1.46H562l.45-3.72h1.46l-.49,3.72h3l.45-3.72h1.46l-.48,3.72h6.34l.44-3.72h1.46l-.48,3.72h3l.45-3.72h1.46l-.48,3.72h1.63v1.46Zm-13.59,0h-3l-.6,4.94h3Zm7.76,0h-6.33l-.6,4.94h6.32Zm4.4,0h-3l-.59,4.94h2.94Z"/><path d="M640.61,284.55l-.6,4.94h1.64v1.45h-1.83l-.43,3.78h-1.46l.46-3.78h-2.95l-.45,3.78h-1.46l.46-3.78h-6.33l-.43,3.78h-1.46l.46-3.78h-3l-.45,3.78h-1.46l.46-3.78h-1.6v-1.45H622l.62-4.94H621v-1.46h1.81l.45-3.72h1.46l-.49,3.72h3l.44-3.72h1.46l-.47,3.72H635l.45-3.72h1.46l-.49,3.72h3l.45-3.72h1.46l-.48,3.72h1.62v1.46Zm-13.59,0h-3l-.6,4.94h2.95Zm7.76,0h-6.33l-.6,4.94h6.31Zm4.4,0h-3l-.6,4.94h2.95Z"/><path d="M668.86,296.35l8.68-19.68,1.35.74L670.24,297Z"/><path d="M713.57,284.55l-.59,4.94h1.64v1.45h-1.84l-.42,3.78H710.9l.45-3.78h-3l-.44,3.78H706.5l.46-3.78h-6.34l-.42,3.78h-1.46l.45-3.78h-3l-.44,3.78h-1.46l.45-3.78h-6.33l-.43,3.78h-1.45l.45-3.78h-2.95l-.44,3.78h-1.46l.45-3.78H681v-1.45h1.78l.61-4.94h-1.64v-1.46h1.82l.44-3.72h1.46l-.49,3.72h3l.45-3.72h1.46l-.48,3.72h6.34l.44-3.72h1.46l-.48,3.72h3l.44-3.72h1.46l-.48,3.72h6.34l.44-3.72h1.46l-.48,3.72h3l.44-3.72h1.46l-.47,3.72h1.62v1.46Zm-25.75,0h-3l-.6,4.94h3Zm7.76,0h-6.33l-.6,4.94H695Zm4.4,0h-3l-.59,4.94h3Zm7.77,0h-6.34l-.6,4.94h6.32Zm4.39,0h-3l-.6,4.94h2.95Z"/><path d="M741.83,296.35l8.67-19.68,1.36.74L743.21,297Z"/><path d="M766.15,296.35l8.68-19.68,1.35.74L767.53,297Z"/><path d="M847.35,284.55l-.6,4.94h1.64v1.45h-1.83l-.43,3.78h-1.46l.46-3.78h-3l-.45,3.78h-1.46l.46-3.78h-6.34l-.42,3.78h-1.46l.45-3.78H830l-.45,3.78h-1.46l.46-3.78H827v-1.45h1.77l.62-4.94h-1.64v-1.46h1.81l.45-3.72h1.45l-.48,3.72h3l.44-3.72h1.46l-.47,3.72h6.33l.45-3.72h1.46l-.49,3.72h3l.45-3.72H848l-.47,3.72h1.62v1.46Zm-13.59,0h-3l-.6,4.94h2.95Zm7.76,0h-6.34l-.59,4.94h6.31Zm4.4,0h-3l-.6,4.94h2.95Z"/><path d="M129.84,324.08l-.6,4.94h1.64v1.45h-1.83l-.43,3.77h-1.46l.46-3.77h-3l-.44,3.77h-1.46l.45-3.77h-6.33l-.43,3.77H115l.46-3.77h-2.95l-.45,3.77H110.6l.46-3.77h-6.33l-.43,3.77h-1.46l.46-3.77h-3l-.45,3.77H98.44l.46-3.77H97.3V329h1.77l.62-4.94H98.05v-1.46h1.81l.45-3.73h1.46l-.49,3.73h3l.45-3.73h1.46l-.48,3.73H112l.45-3.73h1.46l-.49,3.73h3l.45-3.73h1.46l-.48,3.73h6.34l.44-3.73h1.46l-.49,3.73h3l.45-3.73h1.46l-.48,3.73h1.62v1.46Zm-25.75,0h-3l-.6,4.94h3Zm7.76,0h-6.33l-.6,4.94h6.31Zm4.4,0h-3l-.6,4.94h2.95Zm7.76,0h-6.33l-.6,4.94h6.31Zm4.4,0h-3l-.6,4.94h3Z"/><path d="M145.93,335.87l8.68-19.67,1.36.73-8.66,19.61Z"/><path d="M178.48,324.08l-.59,4.94h1.64v1.45h-1.84l-.42,3.77h-1.46l.46-3.77h-3l-.45,3.77h-1.46l.46-3.77h-6.34l-.42,3.77h-1.46l.45-3.77h-2.95l-.44,3.77h-1.46l.46-3.77H158.1V329h1.78l.62-4.94h-1.65v-1.46h1.82l.44-3.73h1.46l-.48,3.73h3l.44-3.73H167l-.47,3.73h6.33l.45-3.73h1.45l-.48,3.73h3l.44-3.73h1.46l-.47,3.73h1.62v1.46Zm-13.59,0h-3l-.59,4.94h2.95Zm7.77,0h-6.34l-.59,4.94H172Zm4.4,0h-3l-.6,4.94h2.95Z"/><path d="M218.9,335.87l8.67-19.67,1.36.73-8.65,19.61Z"/><path d="M324.42,324.08l-.6,4.94h1.64v1.45h-1.83l-.43,3.77h-1.46l.46-3.77h-2.95l-.45,3.77h-1.46l.46-3.77h-6.33l-.43,3.77h-1.46l.46-3.77h-3l-.45,3.77h-1.46l.46-3.77H304V329h1.77l.62-4.94h-1.64v-1.46h1.81l.45-3.73h1.46l-.49,3.73h3l.45-3.73h1.46l-.48,3.73h6.33l.45-3.73h1.46l-.49,3.73h3l.45-3.73h1.46l-.48,3.73h1.62v1.46Zm-13.59,0h-3l-.6,4.94h2.95Zm7.76,0h-6.33l-.6,4.94H318Zm4.4,0h-3l-.6,4.94h2.95Z"/><path d="M433.87,324.08l-.6,4.94h1.64v1.45h-1.83l-.43,3.77h-1.46l.46-3.77H428.7l-.45,3.77h-1.46l.46-3.77h-6.33l-.43,3.77H419l.46-3.77h-2.95l-.45,3.77h-1.46l.46-3.77h-1.6V329h1.77l.62-4.94h-1.64v-1.46h1.81l.45-3.73H418l-.49,3.73h3l.45-3.73h1.46l-.48,3.73h6.33l.45-3.73h1.46l-.49,3.73h3l.45-3.73h1.46l-.48,3.73h1.62v1.46Zm-13.59,0h-3l-.6,4.94h3Zm7.76,0h-6.33l-.6,4.94h6.31Zm4.4,0h-3l-.6,4.94h2.95Z"/><path d="M470.35,324.08l-.6,4.94h1.65v1.45h-1.84l-.42,3.77h-1.46l.45-3.77h-2.95l-.44,3.77h-1.46l.45-3.77H457.4l-.43,3.77h-1.46l.46-3.77h-3l-.44,3.77h-1.46l.45-3.77H450V329h1.77l.62-4.94h-1.64v-1.46h1.81l.45-3.73h1.46l-.49,3.73h3l.45-3.73h1.46l-.48,3.73h6.34l.44-3.73h1.46l-.48,3.73h3l.45-3.73H471l-.48,3.73h1.62v1.46Zm-13.59,0h-3l-.6,4.94h2.95Zm7.76,0h-6.33l-.6,4.94h6.32Zm4.4,0h-3l-.59,4.94h2.94Z"/><path d="M531.16,324.08l-.6,4.94h1.64v1.45h-1.83l-.43,3.77h-1.46l.46-3.77h-3l-.45,3.77h-1.46l.46-3.77H518.2l-.42,3.77h-1.46l.46-3.77h-2.95l-.45,3.77h-1.46l.46-3.77H506l-.42,3.77h-1.46l.45-3.77h-2.94l-.45,3.77h-1.46l.46-3.77h-1.6V329h1.77l.62-4.94h-1.64v-1.46h1.81l.45-3.73h1.45l-.48,3.73h3l.44-3.73h1.46l-.47,3.73h6.33l.45-3.73h1.46l-.49,3.73h3l.44-3.73h1.46l-.47,3.73h6.33l.45-3.73h1.46l-.49,3.73h3l.45-3.73h1.46l-.48,3.73H533v1.46Zm-25.76,0h-3l-.6,4.94h3Zm7.77,0h-6.34l-.59,4.94h6.31Zm4.4,0h-3L514,329h3Zm7.76,0H519l-.6,4.94h6.31Zm4.4,0h-3l-.6,4.94h3Z"/><path d="M579.8,324.08l-.6,4.94h1.64v1.45H579l-.42,3.77h-1.46l.45-3.77h-3l-.44,3.77h-1.46l.45-3.77h-6.33l-.43,3.77H565l.46-3.77h-2.95l-.44,3.77h-1.46l.45-3.77h-1.6V329h1.77l.62-4.94h-1.64v-1.46H562l.45-3.73h1.46l-.49,3.73h3l.45-3.73h1.46l-.48,3.73h6.34l.44-3.73h1.46l-.48,3.73h3l.45-3.73h1.46l-.48,3.73h1.63v1.46Zm-13.59,0h-3l-.6,4.94h3Zm7.76,0h-6.33L567,329h6.32Zm4.4,0h-3l-.59,4.94h2.94Z"/><path d="M640.61,324.08,640,329h1.64v1.45h-1.83l-.43,3.77h-1.46l.46-3.77h-2.95l-.45,3.77h-1.46l.46-3.77h-6.33l-.43,3.77h-1.46l.46-3.77h-3l-.45,3.77h-1.46l.46-3.77h-1.6V329H622l.62-4.94H621v-1.46h1.81l.45-3.73h1.46l-.49,3.73h3l.44-3.73h1.46l-.47,3.73H635l.45-3.73h1.46l-.49,3.73h3l.45-3.73h1.46l-.48,3.73h1.62v1.46Zm-13.59,0h-3l-.6,4.94h2.95Zm7.76,0h-6.33l-.6,4.94h6.31Zm4.4,0h-3l-.6,4.94h2.95Z"/><path d="M656.7,335.87l8.67-19.67,1.36.73-8.65,19.61Z"/><path d="M725.73,324.08l-.59,4.94h1.64v1.45h-1.84l-.42,3.77h-1.46l.46-3.77h-2.95l-.45,3.77h-1.46l.46-3.77h-6.34l-.42,3.77H710.9l.45-3.77h-3l-.44,3.77H706.5l.46-3.77h-6.34l-.42,3.77h-1.46l.45-3.77h-3l-.44,3.77h-1.46l.45-3.77h-1.6V329H695l.61-4.94h-1.64v-1.46h1.82l.44-3.73h1.46l-.48,3.73h3l.44-3.73h1.46l-.48,3.73h6.34l.44-3.73h1.46l-.48,3.73h3l.44-3.73h1.46l-.47,3.73h6.33l.45-3.73H722l-.48,3.73h3l.44-3.73h1.46l-.47,3.73h1.62v1.46Zm-25.75,0h-3l-.59,4.94h2.94Zm7.77,0h-6.34l-.6,4.94h6.32Zm4.39,0h-3l-.59,4.94h2.95Zm7.77,0h-6.34L713,329h6.31Zm4.4,0h-3l-.6,4.94h3Z"/><path d="M729.67,335.87l8.67-19.67,1.36.73L731,336.54Z"/><path d="M754,335.87l8.67-19.67,1.36.73-8.65,19.61Z"/><path d="M859.51,324.08l-.6,4.94h1.64v1.45h-1.83l-.43,3.77h-1.46l.46-3.77h-2.95l-.45,3.77h-1.46l.46-3.77h-6.33l-.43,3.77h-1.46l.46-3.77h-3l-.45,3.77h-1.46l.46-3.77h-1.6V329h1.77l.62-4.94h-1.64v-1.46h1.81l.45-3.73h1.46l-.49,3.73h3l.44-3.73H848l-.47,3.73h6.33l.45-3.73h1.46l-.49,3.73h3l.45-3.73h1.46l-.48,3.73h1.62v1.46Zm-13.59,0h-3l-.6,4.94h2.95Zm7.76,0h-6.33l-.6,4.94h6.31Zm4.4,0h-3l-.6,4.94h3Z"/><path d="M129.24,368.54h1.64V370h-1.83l-.43,3.78h-1.46l.46-3.78h-3l-.44,3.78h-1.46l.45-3.78h-1.6v-1.45h1.77l.62-4.94h-1.64v-1.46h1.82l.44-3.72h1.46l-.49,3.72h3l.45-3.72h1.46l-.48,3.72h1.62v1.46h-1.79Zm-1.45,0,.62-4.94h-3l-.6,4.94Z"/><path d="M133.77,375.4l8.68-19.68,1.36.74-8.66,19.61Z"/><path d="M158.09,375.4l8.68-19.68,1.36.74-8.66,19.61Z"/><path d="M190.65,363.6l-.6,4.94h1.64V370h-1.83l-.43,3.78H188l.46-3.78h-3l-.45,3.78h-1.46L184,370h-6.34l-.42,3.78h-1.46l.45-3.78h-2.94l-.45,3.78h-1.46l.46-3.78h-1.6v-1.45H172l.62-4.94H171v-1.46h1.81l.45-3.72h1.45l-.48,3.72h3l.44-3.72h1.46l-.47,3.72H185l.45-3.72h1.46l-.49,3.72h3l.45-3.72h1.45l-.47,3.72h1.62v1.46Zm-13.59,0h-3l-.6,4.94h2.95Zm7.76,0h-6.34l-.59,4.94h6.31Zm4.4,0h-3l-.6,4.94h2.95Z"/><path d="M218.9,375.4l8.67-19.68,1.36.74-8.65,19.61Z"/><path d="M238.69,368.54h1.64V370H238.5l-.43,3.78h-1.46l.46-3.78h-2.95l-.44,3.78h-1.46l.45-3.78h-1.6v-1.45h1.77l.62-4.94h-1.64v-1.46h1.82l.44-3.72h1.46l-.49,3.72h3l.45-3.72h1.46l-.48,3.72h1.62v1.46h-1.79Zm-1.45,0,.62-4.94h-3l-.6,4.94Z"/><path d="M250.85,368.54h1.65V370h-1.84l-.42,3.78h-1.46l.45-3.78h-2.95l-.44,3.78h-1.46l.45-3.78h-1.6v-1.45H245l.61-4.94H244v-1.46h1.82l.44-3.72h1.46l-.48,3.72h3l.45-3.72h1.46l-.48,3.72h1.62v1.46h-1.79Zm-1.45,0,.62-4.94h-3l-.59,4.94Z"/><path d="M263,368.54h1.65V370h-1.84l-.42,3.78h-1.46l.45-3.78h-2.95l-.44,3.78h-1.46L257,370h-1.6v-1.45h1.78l.62-4.94h-1.65v-1.46H258l.44-3.72h1.46l-.48,3.72h3l.44-3.72h1.46l-.48,3.72h1.63v1.46h-1.8Zm-1.44,0,.61-4.94h-3l-.59,4.94Z"/><path d="M275.18,368.54h1.64V370H275l-.42,3.78H273.1l.45-3.78H270.6l-.44,3.78H268.7l.46-3.78h-1.61v-1.45h1.78l.62-4.94H268.3v-1.46h1.82l.44-3.72H272l-.48,3.72h3l.44-3.72h1.46l-.47,3.72h1.62v1.46h-1.8Zm-1.45,0,.61-4.94h-3l-.6,4.94Z"/><path d="M287.34,368.54H289V370h-1.84l-.42,3.78h-1.46l.46-3.78h-3l-.45,3.78h-1.46l.46-3.78h-1.6v-1.45h1.77l.62-4.94h-1.64v-1.46h1.81l.45-3.72h1.45l-.48,3.72h3l.44-3.72h1.46l-.47,3.72h1.62v1.46h-1.8Zm-1.45,0,.62-4.94h-3l-.6,4.94Z"/><path d="M299.5,368.54h1.64V370h-1.83l-.43,3.78h-1.46l.46-3.78h-2.95l-.45,3.78H293l.46-3.78h-1.6v-1.45h1.77l.62-4.94h-1.64v-1.46h1.81l.45-3.72h1.46l-.49,3.72h3l.44-3.72h1.46l-.47,3.72h1.62v1.46H300.1Zm-1.45,0,.62-4.94h-3l-.6,4.94Z"/><path d="M311.66,368.54h1.64V370h-1.83l-.43,3.78h-1.46L310,370h-3l-.45,3.78h-1.46l.46-3.78H304v-1.45h1.77l.62-4.94h-1.64v-1.46h1.81l.45-3.72h1.46l-.49,3.72h3l.45-3.72h1.46l-.48,3.72h1.62v1.46h-1.79Zm-1.45,0,.62-4.94h-3l-.6,4.94Z"/><path d="M323.82,368.54h1.64V370h-1.83l-.43,3.78h-1.46l.46-3.78h-2.95l-.45,3.78h-1.46l.46-3.78h-1.6v-1.45H318l.62-4.94H317v-1.46h1.81l.45-3.72h1.46l-.49,3.72h3l.45-3.72h1.46l-.48,3.72h1.62v1.46h-1.79Zm-1.45,0,.62-4.94h-3l-.6,4.94Z"/><path d="M433.87,363.6l-.6,4.94h1.64V370h-1.83l-.43,3.78h-1.46l.46-3.78H428.7l-.45,3.78h-1.46l.46-3.78h-6.33l-.43,3.78H419l.46-3.78h-2.95l-.45,3.78h-1.46l.46-3.78h-1.6v-1.45h1.77l.62-4.94h-1.64v-1.46h1.81l.45-3.72H418l-.49,3.72h3l.45-3.72h1.46l-.48,3.72h6.33l.45-3.72h1.46l-.49,3.72h3l.45-3.72h1.46l-.48,3.72h1.62v1.46Zm-13.59,0h-3l-.6,4.94h3Zm7.76,0h-6.33l-.6,4.94h6.31Zm4.4,0h-3l-.6,4.94h2.95Z"/><path d="M470.35,363.6l-.6,4.94h1.65V370h-1.84l-.42,3.78h-1.46l.45-3.78h-2.95l-.44,3.78h-1.46l.45-3.78H457.4l-.43,3.78h-1.46L456,370h-3l-.44,3.78h-1.46l.45-3.78H450v-1.45h1.77l.62-4.94h-1.64v-1.46h1.81l.45-3.72h1.46l-.49,3.72h3l.45-3.72h1.46l-.48,3.72h6.34l.44-3.72h1.46l-.48,3.72h3l.45-3.72H471l-.48,3.72h1.62v1.46Zm-13.59,0h-3l-.6,4.94h2.95Zm7.76,0h-6.33l-.6,4.94h6.32Zm4.4,0h-3l-.59,4.94h2.94Z"/><path d="M543.32,363.6l-.6,4.94h1.64V370h-1.83l-.43,3.78h-1.46l.46-3.78h-3l-.45,3.78h-1.46l.46-3.78h-6.33l-.43,3.78h-1.46l.46-3.78h-3l-.45,3.78h-1.46l.46-3.78h-1.6v-1.45h1.77l.62-4.94h-1.64v-1.46h1.81l.45-3.72h1.46l-.49,3.72h3l.45-3.72h1.46l-.48,3.72h6.33l.45-3.72h1.46l-.49,3.72h3l.45-3.72H544l-.48,3.72h1.62v1.46Zm-13.59,0h-3l-.6,4.94h3Zm7.76,0h-6.33l-.6,4.94h6.31Zm4.4,0h-3l-.6,4.94h2.95Z"/><path d="M579.8,363.6l-.6,4.94h1.64V370H579l-.42,3.78h-1.46l.45-3.78h-3l-.44,3.78h-1.46l.45-3.78h-6.33l-.43,3.78H565l.46-3.78h-2.95l-.44,3.78h-1.46L561,370h-1.6v-1.45h1.77l.62-4.94h-1.64v-1.46H562l.45-3.72h1.46l-.49,3.72h3l.45-3.72h1.46l-.48,3.72h6.34l.44-3.72h1.46l-.48,3.72h3l.45-3.72h1.46l-.48,3.72h1.63v1.46Zm-13.59,0h-3l-.6,4.94h3Zm7.76,0h-6.33l-.6,4.94h6.32Zm4.4,0h-3l-.59,4.94h2.94Z"/><path d="M640.61,363.6l-.6,4.94h1.64V370h-1.83l-.43,3.78h-1.46l.46-3.78h-2.95l-.45,3.78h-1.46L634,370h-6.33l-.43,3.78h-1.46l.46-3.78h-3l-.45,3.78h-1.46l.46-3.78h-1.6v-1.45H622l.62-4.94H621v-1.46h1.81l.45-3.72h1.46l-.49,3.72h3l.44-3.72h1.46l-.47,3.72H635l.45-3.72h1.46l-.49,3.72h3l.45-3.72h1.46l-.48,3.72h1.62v1.46Zm-13.59,0h-3l-.6,4.94h2.95Zm7.76,0h-6.33l-.6,4.94h6.31Zm4.4,0h-3l-.6,4.94h2.95Z"/><path d="M644.54,375.4l8.67-19.68,1.36.74-8.65,19.61Z"/><path d="M725.73,363.6l-.59,4.94h1.64V370h-1.84l-.42,3.78h-1.46l.46-3.78h-2.95l-.45,3.78h-1.46l.46-3.78h-6.34l-.42,3.78H710.9l.45-3.78h-3l-.44,3.78H706.5L707,370h-1.61v-1.45h1.78l.62-4.94H706.1v-1.46h1.82l.44-3.72h1.46l-.48,3.72h3l.44-3.72h1.46l-.47,3.72h6.33l.45-3.72H722l-.48,3.72h3l.44-3.72h1.46l-.47,3.72h1.62v1.46Zm-13.59,0h-3l-.59,4.94h2.95Zm7.77,0h-6.34l-.59,4.94h6.31Zm4.4,0h-3l-.6,4.94h3Z"/><path d="M754,375.4l8.67-19.68,1.36.74-8.65,19.61Z"/><path d="M773.78,368.54h1.64V370h-1.83l-.43,3.78H771.7l.46-3.78h-2.95l-.45,3.78h-1.45l.45-3.78h-1.6v-1.45h1.77l.62-4.94h-1.64v-1.46h1.81l.45-3.72h1.46l-.49,3.72h3l.45-3.72H775l-.48,3.72h1.62v1.46h-1.79Zm-1.45,0,.62-4.94h-3l-.6,4.94Z"/><path d="M785.94,368.54h1.64V370h-1.83l-.43,3.78h-1.46l.46-3.78h-3l-.44,3.78h-1.46l.45-3.78h-1.6v-1.45h1.77l.62-4.94h-1.64v-1.46h1.82l.44-3.72h1.46l-.49,3.72h3l.45-3.72h1.46l-.48,3.72h1.62v1.46h-1.79Zm-1.45,0,.62-4.94h-3l-.6,4.94Z"/><path d="M798.1,368.54h1.64V370h-1.83l-.42,3.78H796l.45-3.78h-3l-.44,3.78h-1.46l.45-3.78h-1.6v-1.45h1.78l.61-4.94h-1.64v-1.46h1.82l.44-3.72H795l-.48,3.72h3l.45-3.72h1.46l-.48,3.72h1.63v1.46h-1.8Zm-1.45,0,.62-4.94h-3l-.59,4.94Z"/><path d="M810.26,368.54h1.65V370h-1.84l-.42,3.78h-1.46l.45-3.78h-2.95l-.44,3.78h-1.46l.45-3.78h-1.6v-1.45h1.78l.62-4.94h-1.65v-1.46h1.82l.44-3.72h1.46l-.48,3.72h3l.44-3.72h1.46l-.48,3.72h1.63v1.46h-1.8Zm-1.44,0,.61-4.94h-3l-.59,4.94Z"/><path d="M822.43,368.54h1.64V370h-1.84l-.42,3.78h-1.46l.45-3.78h-2.95l-.44,3.78H816l.46-3.78H814.8v-1.45h1.78l.62-4.94h-1.65v-1.46h1.82l.44-3.72h1.46l-.48,3.72h3l.44-3.72h1.46l-.47,3.72h1.62v1.46H823Zm-1.45,0,.61-4.94h-3l-.6,4.94Z"/><path d="M834.59,368.54h1.64V370h-1.84l-.42,3.78h-1.46L833,370h-3l-.45,3.78h-1.46l.46-3.78H827v-1.45h1.77l.62-4.94h-1.64v-1.46h1.81l.45-3.72h1.45l-.48,3.72h3l.44-3.72h1.46l-.47,3.72H837v1.46h-1.8Zm-1.45,0,.62-4.94h-3l-.6,4.94Z"/><path d="M846.75,368.54h1.64V370h-1.83l-.43,3.78h-1.46l.46-3.78h-3l-.45,3.78h-1.46l.46-3.78h-1.6v-1.45h1.77l.62-4.94h-1.64v-1.46h1.81l.45-3.72h1.46l-.49,3.72h3l.45-3.72H848l-.47,3.72h1.62v1.46h-1.79Zm-1.45,0,.62-4.94h-3l-.6,4.94Z"/><path d="M858.91,368.54h1.64V370h-1.83l-.43,3.78h-1.46l.46-3.78h-2.95l-.45,3.78h-1.46l.46-3.78h-1.6v-1.45h1.77l.62-4.94H852v-1.46h1.81l.45-3.72h1.46l-.49,3.72h3l.45-3.72h1.46l-.48,3.72h1.62v1.46h-1.79Zm-1.45,0,.62-4.94h-3l-.6,4.94Z"/><path d="M141.4,408.06h1.65v1.45h-1.84l-.42,3.78h-1.46l.45-3.78h-2.95l-.44,3.78h-1.46l.45-3.78h-1.6v-1.45h1.78l.61-4.93h-1.64v-1.46h1.82l.44-3.73h1.46l-.48,3.73h3l.45-3.73h1.46l-.48,3.73h1.63v1.46H142Zm-1.45,0,.62-4.93h-3l-.59,4.93Z"/><path d="M145.93,414.92l8.68-19.68L156,396l-8.66,19.61Z"/><path d="M190.65,403.13l-.6,4.93h1.64v1.45h-1.83l-.43,3.78H188l.46-3.78h-3l-.45,3.78h-1.46l.46-3.78h-6.34l-.42,3.78h-1.46l.45-3.78h-2.94l-.45,3.78h-1.46l.46-3.78h-1.6v-1.45H172l.62-4.93H171v-1.46h1.81l.45-3.73h1.45l-.48,3.73h3l.44-3.73h1.46l-.47,3.73H185l.45-3.73h1.46l-.49,3.73h3l.45-3.73h1.45l-.47,3.73h1.62v1.46Zm-13.59,0h-3l-.6,4.93h2.95Zm7.76,0h-6.34l-.59,4.93h6.31Zm4.4,0h-3l-.6,4.93h2.95Z"/><path d="M206.74,414.92l8.67-19.68,1.36.74-8.65,19.61Z"/><path d="M336.58,403.13l-.6,4.93h1.64v1.45h-1.83l-.43,3.78H333.9l.46-3.78h-2.95l-.45,3.78h-1.45l.45-3.78h-6.33l-.43,3.78h-1.46l.46-3.78h-2.95l-.45,3.78h-1.46l.46-3.78h-1.6v-1.45H318l.62-4.93H317v-1.46h1.81l.45-3.73h1.46l-.49,3.73h3l.45-3.73h1.46l-.48,3.73h6.33l.45-3.73h1.46l-.49,3.73h3l.45-3.73h1.46l-.48,3.73h1.62v1.46Zm-13.59,0h-3l-.6,4.93h2.95Zm7.76,0h-6.33l-.6,4.93h6.31Zm4.4,0h-3l-.6,4.93h2.95Z"/><path d="M421.11,408.06h1.64v1.45h-1.83l-.43,3.78H419l.46-3.78h-2.95l-.45,3.78h-1.46l.46-3.78h-1.6v-1.45h1.77l.62-4.93h-1.64v-1.46h1.81l.45-3.73H418l-.49,3.73h3l.45-3.73h1.46l-.48,3.73h1.62v1.46h-1.79Zm-1.45,0,.62-4.93h-3l-.6,4.93Z"/><path d="M470.35,403.13l-.6,4.93h1.65v1.45h-1.84l-.42,3.78h-1.46l.45-3.78h-2.95l-.44,3.78h-1.46l.45-3.78H457.4l-.43,3.78h-1.46l.46-3.78h-3l-.44,3.78h-1.46l.45-3.78H450v-1.45h1.77l.62-4.93h-1.64v-1.46h1.81l.45-3.73h1.46l-.49,3.73h3l.45-3.73h1.46l-.48,3.73h6.34l.44-3.73h1.46l-.48,3.73h3l.45-3.73H471l-.48,3.73h1.62v1.46Zm-13.59,0h-3l-.6,4.93h2.95Zm7.76,0h-6.33l-.6,4.93h6.32Zm4.4,0h-3l-.59,4.93h2.94Z"/><path d="M543.32,403.13l-.6,4.93h1.64v1.45h-1.83l-.43,3.78h-1.46l.46-3.78h-3l-.45,3.78h-1.46l.46-3.78h-6.33l-.43,3.78h-1.46l.46-3.78h-3l-.45,3.78h-1.46l.46-3.78h-1.6v-1.45h1.77l.62-4.93h-1.64v-1.46h1.81l.45-3.73h1.46l-.49,3.73h3l.45-3.73h1.46l-.48,3.73h6.33l.45-3.73h1.46l-.49,3.73h3l.45-3.73H544l-.48,3.73h1.62v1.46Zm-13.59,0h-3l-.6,4.93h3Zm7.76,0h-6.33l-.6,4.93h6.31Zm4.4,0h-3l-.6,4.93h2.95Z"/><path d="M592,403.13l-.6,4.93H593v1.45h-1.84l-.42,3.78h-1.46l.45-3.78h-3l-.44,3.78h-1.46l.45-3.78H579l-.42,3.78h-1.46l.45-3.78h-3l-.44,3.78h-1.46l.45-3.78h-1.6v-1.45h1.78l.61-4.93h-1.64v-1.46h1.82l.44-3.73h1.46l-.49,3.73h3l.45-3.73h1.46l-.48,3.73h6.34l.44-3.73h1.46l-.48,3.73h3l.44-3.73h1.46l-.48,3.73h1.63v1.46Zm-13.59,0h-3l-.6,4.93h3Zm7.77,0H579.8l-.6,4.93h6.32Zm4.39,0h-3l-.59,4.93h2.95Z"/><path d="M640.61,403.13l-.6,4.93h1.64v1.45h-1.83l-.43,3.78h-1.46l.46-3.78h-2.95l-.45,3.78h-1.46l.46-3.78h-6.33l-.43,3.78h-1.46l.46-3.78h-3l-.45,3.78h-1.46l.46-3.78h-1.6v-1.45H622l.62-4.93H621v-1.46h1.81l.45-3.73h1.46l-.49,3.73h3l.44-3.73h1.46l-.47,3.73H635l.45-3.73h1.46l-.49,3.73h3l.45-3.73h1.46l-.48,3.73h1.62v1.46Zm-13.59,0h-3l-.6,4.93h2.95Zm7.76,0h-6.33l-.6,4.93h6.31Zm4.4,0h-3l-.6,4.93h2.95Z"/><path d="M713,408.06h1.64v1.45h-1.84l-.42,3.78H710.9l.45-3.78h-3l-.44,3.78H706.5l.46-3.78h-1.61v-1.45h1.78l.62-4.93H706.1v-1.46h1.82l.44-3.73h1.46l-.48,3.73h3l.44-3.73h1.46l-.47,3.73h1.62v1.46h-1.8Zm-1.45,0,.61-4.93h-3l-.6,4.93Z"/><path d="M741.83,414.92l8.67-19.68,1.36.74-8.65,19.61Z"/><path d="M871.67,403.13l-.6,4.93h1.64v1.45h-1.83l-.43,3.78H869l.46-3.78h-3l-.45,3.78h-1.46l.46-3.78h-6.33l-.43,3.78h-1.46l.46-3.78h-2.95l-.45,3.78h-1.46l.46-3.78h-1.6v-1.45h1.77l.62-4.93H852v-1.46h1.81l.45-3.73h1.46l-.49,3.73h3l.45-3.73h1.46l-.48,3.73H866l.45-3.73h1.46l-.49,3.73h3l.45-3.73h1.46l-.48,3.73h1.62v1.46Zm-13.59,0h-3l-.6,4.93h3Zm7.76,0h-6.33l-.6,4.93h6.31Zm4.4,0h-3l-.6,4.93h3Z"/><path d="M153.56,447.59h1.65V449h-1.84l-.42,3.78h-1.46l.45-3.78H149l-.44,3.78h-1.46l.45-3.78h-1.6v-1.45h1.78l.62-4.94h-1.65v-1.46h1.82l.44-3.72h1.46l-.48,3.72h3l.44-3.72h1.46l-.48,3.72H156v1.46h-1.8Zm-1.44,0,.61-4.94h-3l-.59,4.94Z"/><path d="M170.26,454.45l8.67-19.68,1.36.73-8.66,19.61Z"/><path d="M214.37,447.59H216V449h-1.83l-.43,3.78h-1.46l.46-3.78H209.8l-.45,3.78h-1.46l.46-3.78h-1.6v-1.45h1.77l.62-4.94H207.5v-1.46h1.81l.45-3.72h1.46l-.49,3.72h3l.45-3.72h1.46l-.48,3.72h1.62v1.46H215Zm-1.45,0,.62-4.94h-3l-.6,4.94Z"/><path d="M336.58,442.65l-.6,4.94h1.64V449h-1.83l-.43,3.78H333.9l.46-3.78h-2.95l-.45,3.78h-1.45L330,449h-6.33l-.43,3.78h-1.46l.46-3.78h-2.95l-.45,3.78h-1.46l.46-3.78h-1.6v-1.45H318l.62-4.94H317v-1.46h1.81l.45-3.72h1.46l-.49,3.72h3l.45-3.72h1.46l-.48,3.72h6.33l.45-3.72h1.46l-.49,3.72h3l.45-3.72h1.46l-.48,3.72h1.62v1.46Zm-13.59,0h-3l-.6,4.94h2.95Zm7.76,0h-6.33l-.6,4.94h6.31Zm4.4,0h-3l-.6,4.94h2.95Z"/><path d="M450,454.45l8.68-19.68,1.35.73-8.65,19.61Z"/><path d="M543.32,442.65l-.6,4.94h1.64V449h-1.83l-.43,3.78h-1.46l.46-3.78h-3l-.45,3.78h-1.46l.46-3.78h-6.33l-.43,3.78h-1.46l.46-3.78h-3l-.45,3.78h-1.46l.46-3.78h-1.6v-1.45h1.77l.62-4.94h-1.64v-1.46h1.81l.45-3.72h1.46l-.49,3.72h3l.45-3.72h1.46l-.48,3.72h6.33l.45-3.72h1.46l-.49,3.72h3l.45-3.72H544l-.48,3.72h1.62v1.46Zm-13.59,0h-3l-.6,4.94h3Zm7.76,0h-6.33l-.6,4.94h6.31Zm4.4,0h-3l-.6,4.94h2.95Z"/><path d="M604.12,442.65l-.59,4.94h1.64V449h-1.84l-.42,3.78h-1.46l.45-3.78H599l-.44,3.78h-1.46l.46-3.78h-6.34l-.42,3.78h-1.46l.45-3.78h-3l-.44,3.78h-1.46l.45-3.78h-1.6v-1.45h1.78l.61-4.94h-1.64v-1.46h1.82l.44-3.72h1.46l-.48,3.72h3l.44-3.72h1.46l-.48,3.72h6.34l.44-3.72h1.46l-.48,3.72h3l.44-3.72h1.46l-.47,3.72h1.62v1.46Zm-13.59,0h-3l-.59,4.94h2.95Zm7.77,0H592l-.6,4.94h6.32Zm4.39,0h-3l-.6,4.94h3Z"/><path d="M627.85,447.59h1.64V449h-1.83l-.43,3.78h-1.46l.46-3.78h-3l-.45,3.78h-1.46l.46-3.78h-1.6v-1.45H622l.62-4.94H621v-1.46h1.81l.45-3.72h1.46l-.49,3.72h3l.45-3.72h1.45l-.47,3.72h1.62v1.46h-1.79Zm-1.45,0,.62-4.94h-3l-.6,4.94Z"/><path d="M705.34,454.45,714,434.77l1.36.73-8.66,19.61Z"/><path d="M749.46,447.59h1.64V449h-1.83l-.43,3.78h-1.46l.46-3.78h-3l-.45,3.78H743l.46-3.78h-1.6v-1.45h1.77l.62-4.94h-1.64v-1.46h1.81l.45-3.72h1.46l-.49,3.72h3l.45-3.72h1.46l-.48,3.72h1.62v1.46h-1.79Zm-1.45,0,.62-4.94h-3l-.6,4.94Z"/><path d="M871.67,442.65l-.6,4.94h1.64V449h-1.83l-.43,3.78H869l.46-3.78h-3l-.45,3.78h-1.46l.46-3.78h-6.33l-.43,3.78h-1.46l.46-3.78h-2.95l-.45,3.78h-1.46l.46-3.78h-1.6v-1.45h1.77l.62-4.94H852v-1.46h1.81l.45-3.72h1.46l-.49,3.72h3l.45-3.72h1.46l-.48,3.72H866l.45-3.72h1.46l-.49,3.72h3l.45-3.72h1.46l-.48,3.72h1.62v1.46Zm-13.59,0h-3l-.6,4.94h3Zm7.76,0h-6.33l-.6,4.94h6.31Zm4.4,0h-3l-.6,4.94h3Z"/><path d="M24.32,494,33,474.29l1.36.74L25.7,494.64Z"/><path d="M56.87,482.18l-.59,4.93h1.64v1.45H56.08l-.42,3.78H54.2l.45-3.78H51.7l-.44,3.78H49.8l.46-3.78H43.92l-.42,3.78H42l.45-3.78h-3l-.44,3.78H37.64l.45-3.78h-1.6v-1.45h1.78l.61-4.93H37.24v-1.47h1.82L39.5,477H41l-.48,3.72h3L43.9,477h1.46l-.48,3.72h6.34l.44-3.72h1.46l-.48,3.72h3l.44-3.72h1.46l-.47,3.72h1.62v1.47Zm-13.59,0h-3l-.59,4.93h3Zm7.77,0H44.71l-.6,4.93h6.32Zm4.39,0h-3l-.6,4.93h2.95Z"/><path d="M158.09,494l8.68-19.68,1.36.74-8.66,19.61Z"/><path d="M194.58,494l8.67-19.68,1.36.74L196,494.64Z"/><path d="M251.45,482.18l-.6,4.93h1.65v1.45h-1.84l-.42,3.78h-1.46l.45-3.78h-2.95l-.44,3.78h-1.46l.45-3.78H238.5l-.43,3.78h-1.46l.46-3.78h-2.95l-.44,3.78h-1.46l.45-3.78h-6.33l-.43,3.78h-1.46l.46-3.78H222l-.45,3.78h-1.46l.46-3.78h-6.33l-.43,3.78h-1.46l.46-3.78H209.8l-.45,3.78h-1.46l.46-3.78h-1.6v-1.45h1.77l.62-4.93H207.5v-1.47h1.81l.45-3.72h1.46l-.49,3.72h3l.45-3.72h1.46l-.48,3.72h6.33l.45-3.72h1.46l-.49,3.72h3l.45-3.72h1.46l-.48,3.72h6.33l.45-3.72h1.46l-.49,3.72h3l.45-3.72h1.46l-.48,3.72h6.34l.44-3.72h1.46l-.48,3.72h3l.45-3.72h1.46l-.48,3.72h1.62v1.47Zm-37.91,0h-3l-.6,4.93h2.95Zm7.76,0H215l-.6,4.93h6.31Zm4.4,0h-3l-.6,4.93h3Zm7.76,0h-6.33l-.6,4.93h6.31Zm4.4,0h-3l-.6,4.93h3Zm7.76,0h-6.33l-.6,4.93H245Zm4.4,0h-3l-.59,4.93h2.94Z"/><path d="M348.74,482.18l-.6,4.93h1.64v1.45H348l-.43,3.78h-1.46l.46-3.78h-2.95l-.44,3.78h-1.46l.45-3.78h-6.33l-.43,3.78H333.9l.46-3.78h-2.95l-.45,3.78H329.5l.46-3.78h-1.6v-1.45h1.77l.62-4.93h-1.64v-1.47h1.81l.45-3.72h1.46l-.49,3.72h3l.45-3.72h1.46l-.48,3.72h6.34l.44-3.72H345l-.49,3.72h3l.45-3.72h1.46l-.48,3.72h1.62v1.47Zm-13.59,0h-3l-.6,4.93h2.95Zm7.76,0h-6.33l-.6,4.93h6.31Zm4.4,0h-3l-.6,4.93h2.95Z"/><path d="M401.32,494,410,474.29l1.36.74-8.66,19.61Z"/><path d="M433.87,482.18l-.6,4.93h1.64v1.45h-1.83l-.43,3.78h-1.46l.46-3.78H428.7l-.45,3.78h-1.46l.46-3.78h-6.33l-.43,3.78H419l.46-3.78h-2.95l-.45,3.78h-1.46l.46-3.78h-1.6v-1.45h1.77l.62-4.93h-1.64v-1.47h1.81l.45-3.72H418l-.49,3.72h3l.45-3.72h1.46l-.48,3.72h6.33l.45-3.72h1.46l-.49,3.72h3l.45-3.72h1.46l-.48,3.72h1.62v1.47Zm-13.59,0h-3l-.6,4.93h3Zm7.76,0h-6.33l-.6,4.93h6.31Zm4.4,0h-3l-.6,4.93h2.95Z"/><path d="M437.8,494l8.67-19.68,1.36.74-8.65,19.61Z"/><path d="M555.48,482.18l-.6,4.93h1.64v1.45h-1.83l-.43,3.78H552.8l.46-3.78h-3l-.45,3.78h-1.45l.45-3.78h-6.33l-.43,3.78h-1.46l.46-3.78h-3l-.45,3.78h-1.46l.46-3.78h-6.33l-.43,3.78h-1.46l.46-3.78h-3l-.45,3.78h-1.46l.46-3.78h-1.6v-1.45h1.77l.62-4.93h-1.64v-1.47h1.81L526,477h1.46l-.49,3.72h3l.45-3.72h1.45l-.47,3.72h6.33l.45-3.72h1.46l-.49,3.72h3l.45-3.72H544l-.48,3.72h6.33l.45-3.72h1.46l-.49,3.72h3l.45-3.72h1.46l-.48,3.72h1.62v1.47Zm-25.75,0h-3l-.6,4.93h3Zm7.76,0h-6.33l-.6,4.93h6.31Zm4.4,0h-3l-.6,4.93h2.95Zm7.76,0h-6.33l-.6,4.93H549Zm4.4,0h-3l-.6,4.93h2.95Z"/><path d="M628.45,482.18l-.6,4.93h1.64v1.45h-1.83l-.43,3.78h-1.46l.46-3.78h-3l-.45,3.78h-1.46l.46-3.78h-6.34l-.42,3.78h-1.46l.45-3.78h-2.94l-.45,3.78h-1.46l.46-3.78h-6.34l-.42,3.78h-1.46l.45-3.78H599l-.44,3.78h-1.46l.46-3.78H595.9v-1.45h1.78l.62-4.93h-1.65v-1.47h1.82l.44-3.72h1.46l-.48,3.72h3l.44-3.72h1.46l-.47,3.72h6.33l.45-3.72h1.45l-.48,3.72h3l.44-3.72h1.46l-.47,3.72h6.33l.45-3.72h1.46l-.49,3.72h3l.45-3.72h1.45l-.47,3.72h1.62v1.47Zm-25.76,0h-3l-.59,4.93h3Zm7.77,0h-6.34l-.59,4.93h6.31Zm4.4,0h-3l-.6,4.93h3Zm7.76,0h-6.34l-.59,4.93H622Zm4.4,0h-3l-.6,4.93h2.95Z"/><path d="M693.18,494l8.68-19.68,1.36.74-8.66,19.61Z"/><path d="M729.67,494l8.67-19.68,1.36.74L731,494.64Z"/><path d="M786.54,482.18l-.6,4.93h1.64v1.45h-1.83l-.43,3.78h-1.46l.46-3.78h-3l-.44,3.78h-1.46l.45-3.78h-6.33l-.43,3.78H771.7l.46-3.78h-2.95l-.45,3.78H767.3l.46-3.78h-6.33l-.43,3.78h-1.46l.46-3.78h-3l-.45,3.78h-1.46l.46-3.78h-6.33l-.43,3.78h-1.46l.46-3.78h-3l-.45,3.78H743l.46-3.78h-1.6v-1.45h1.77l.62-4.93h-1.64v-1.47h1.81l.45-3.72h1.46l-.49,3.72h3l.45-3.72h1.45l-.47,3.72h6.33L757,477h1.46l-.49,3.72h3l.45-3.72h1.46l-.48,3.72h6.33l.45-3.72h1.46l-.49,3.72h3l.45-3.72H775l-.48,3.72h6.34l.44-3.72h1.46l-.49,3.72h3l.45-3.72h1.46l-.48,3.72h1.62v1.47Zm-37.91,0h-3l-.6,4.93h3Zm7.76,0h-6.33l-.6,4.93h6.31Zm4.4,0h-3l-.6,4.93h2.95Zm7.76,0h-6.33l-.6,4.93h6.31Zm4.4,0h-3l-.6,4.93h3Zm7.76,0h-6.33l-.6,4.93h6.31Zm4.4,0h-3l-.6,4.93h3Z"/><path d="M883.83,482.18l-.6,4.93h1.64v1.45H883l-.43,3.78h-1.46l.46-3.78h-3l-.45,3.78h-1.45l.45-3.78h-6.33l-.43,3.78H869l.46-3.78h-3l-.45,3.78h-1.46l.46-3.78h-1.6v-1.45h1.77l.62-4.93H864.2v-1.47H866l.45-3.72h1.46l-.49,3.72h3l.45-3.72h1.46l-.48,3.72h6.33l.45-3.72h1.46l-.49,3.72h3L883,477h1.46l-.48,3.72h1.62v1.47Zm-13.59,0h-3l-.6,4.93h3Zm7.76,0h-6.33l-.6,4.93h6.31Zm4.4,0h-3l-.6,4.93h2.95Z"/><path d="M12.16,533.49l8.68-19.67,1.35.73-8.65,19.61Z"/><path d="M56.28,526.64h1.64v1.45H56.08l-.42,3.78H54.2l.45-3.78H51.7l-.44,3.78H49.8l.46-3.78H48.65v-1.45h1.78l.62-4.94H49.4v-1.46h1.82l.44-3.72h1.46l-.48,3.72h3l.44-3.72h1.46l-.47,3.72h1.62v1.46h-1.8Zm-1.45,0,.61-4.94h-3l-.6,4.94Z"/><path d="M68.44,526.64h1.64v1.45H68.24l-.42,3.78H66.36l.46-3.78H63.87l-.45,3.78H62l.46-3.78h-1.6v-1.45h1.77l.62-4.94H61.57v-1.46h1.81l.45-3.72h1.45l-.48,3.72h3l.44-3.72h1.46l-.47,3.72h1.62v1.46H69Zm-1.45,0,.62-4.94h-3l-.6,4.94Z"/><path d="M80.6,526.64h1.64v1.45H80.41L80,531.87H78.52l.46-3.78H76l-.45,3.78H74.12l.46-3.78H73v-1.45h1.77l.62-4.94H73.73v-1.46h1.81l.45-3.72h1.46L77,520.24h3l.44-3.72h1.46l-.47,3.72H83v1.46H81.2Zm-1.45,0,.62-4.94h-3l-.6,4.94Z"/><path d="M92.76,526.64H94.4v1.45H92.57l-.43,3.78H90.68l.46-3.78h-3l-.45,3.78H86.28l.46-3.78h-1.6v-1.45h1.77l.62-4.94H85.89v-1.46H87.7l.45-3.72h1.46l-.49,3.72h3l.45-3.72H94l-.48,3.72h1.62v1.46H93.36Zm-1.45,0,.62-4.94H89l-.6,4.94Z"/><path d="M104.92,526.64h1.64v1.45h-1.83l-.43,3.78h-1.46l.46-3.78h-3l-.45,3.78H98.44l.46-3.78H97.3v-1.45h1.77l.62-4.94H98.05v-1.46h1.81l.45-3.72h1.46l-.49,3.72h3l.45-3.72h1.46l-.48,3.72h1.62v1.46h-1.79Zm-1.45,0,.62-4.94h-3l-.6,4.94Z"/><path d="M117.08,526.64h1.64v1.45h-1.83l-.43,3.78H115l.46-3.78h-2.95l-.45,3.78h-1.45l.45-3.78h-1.6v-1.45h1.77l.62-4.94h-1.64v-1.46H112l.45-3.72h1.46l-.49,3.72h3l.45-3.72h1.46l-.48,3.72h1.62v1.46h-1.79Zm-1.45,0,.62-4.94h-3l-.6,4.94Z"/><path d="M129.24,526.64h1.64v1.45h-1.83l-.43,3.78h-1.46l.46-3.78h-3l-.44,3.78h-1.46l.45-3.78h-1.6v-1.45h1.77l.62-4.94h-1.64v-1.46h1.82l.44-3.72h1.46l-.49,3.72h3l.45-3.72h1.46l-.48,3.72h1.62v1.46h-1.79Zm-1.45,0,.62-4.94h-3l-.6,4.94Z"/><path d="M141.4,526.64h1.65v1.45h-1.84l-.42,3.78h-1.46l.45-3.78h-2.95l-.44,3.78h-1.46l.45-3.78h-1.6v-1.45h1.78l.61-4.94h-1.64v-1.46h1.82l.44-3.72h1.46l-.48,3.72h3l.45-3.72h1.46l-.48,3.72h1.63v1.46H142Zm-1.45,0,.62-4.94h-3l-.59,4.94Z"/><path d="M145.93,533.49l8.68-19.67,1.36.73-8.66,19.61Z"/><path d="M182.42,533.49l8.67-19.67,1.36.73-8.66,19.61Z"/><path d="M275.77,521.7l-.59,4.94h1.64v1.45H275l-.42,3.78H273.1l.45-3.78H270.6l-.44,3.78H268.7l.46-3.78h-6.34l-.42,3.78h-1.46l.45-3.78h-2.95l-.44,3.78h-1.46l.45-3.78h-6.33l-.43,3.78h-1.45l.45-3.78h-2.95l-.44,3.78h-1.46l.45-3.78H238.5l-.43,3.78h-1.46l.46-3.78h-2.95l-.45,3.78h-1.45l.45-3.78h-1.6v-1.45h1.77l.62-4.94h-1.64v-1.46h1.81l.45-3.72h1.46l-.49,3.72h3l.45-3.72h1.46l-.48,3.72h6.34l.44-3.72h1.46l-.49,3.72h3l.45-3.72h1.46l-.48,3.72H258l.44-3.72h1.46l-.48,3.72h3l.44-3.72h1.46l-.48,3.72h6.34l.44-3.72H272l-.48,3.72h3l.44-3.72h1.46l-.47,3.72h1.62v1.46Zm-37.91,0h-3l-.6,4.94h3Zm7.76,0h-6.33l-.6,4.94H245Zm4.4,0h-3l-.6,4.94h3Zm7.76,0h-6.33l-.6,4.94h6.32Zm4.4,0h-3l-.59,4.94h2.95Zm7.77,0h-6.34l-.6,4.94h6.32Zm4.39,0h-3l-.6,4.94h3Z"/><path d="M348.74,521.7l-.6,4.94h1.64v1.45H348l-.43,3.78h-1.46l.46-3.78h-2.95l-.44,3.78h-1.46l.45-3.78h-6.33l-.43,3.78H333.9l.46-3.78h-2.95l-.45,3.78H329.5l.46-3.78h-1.6v-1.45h1.77l.62-4.94h-1.64v-1.46h1.81l.45-3.72h1.46l-.49,3.72h3l.45-3.72h1.46l-.48,3.72h6.34l.44-3.72H345l-.49,3.72h3l.45-3.72h1.46l-.48,3.72h1.62v1.46Zm-13.59,0h-3l-.6,4.94h2.95Zm7.76,0h-6.33l-.6,4.94h6.31Zm4.4,0h-3l-.6,4.94h2.95Z"/><path d="M364.83,533.49l8.68-19.67,1.36.73-8.66,19.61Z"/><path d="M389.16,533.49l8.67-19.67,1.36.73-8.66,19.61Z"/><path d="M470.35,521.7l-.6,4.94h1.65v1.45h-1.84l-.42,3.78h-1.46l.45-3.78h-2.95l-.44,3.78h-1.46l.45-3.78H457.4l-.43,3.78h-1.46l.46-3.78h-3l-.44,3.78h-1.46l.45-3.78h-6.33l-.43,3.78h-1.46l.46-3.78h-2.95l-.45,3.78H439l.46-3.78h-6.33l-.43,3.78h-1.46l.46-3.78H428.7l-.45,3.78h-1.46l.46-3.78h-1.6v-1.45h1.77l.62-4.94H426.4v-1.46h1.81l.45-3.72h1.46l-.49,3.72h3l.45-3.72h1.46l-.48,3.72h6.33l.45-3.72h1.46l-.49,3.72h3l.45-3.72h1.46l-.48,3.72h6.33l.45-3.72h1.46l-.49,3.72h3l.45-3.72h1.46l-.48,3.72h6.34l.44-3.72h1.46l-.48,3.72h3l.45-3.72H471l-.48,3.72h1.62v1.46Zm-37.91,0h-3l-.6,4.94h2.95Zm7.76,0h-6.33l-.6,4.94h6.31Zm4.4,0h-3l-.6,4.94h3Zm7.76,0H446l-.6,4.94h6.31Zm4.4,0h-3l-.6,4.94h2.95Zm7.76,0h-6.33l-.6,4.94h6.32Zm4.4,0h-3l-.59,4.94h2.94Z"/><path d="M543.32,521.7l-.6,4.94h1.64v1.45h-1.83l-.43,3.78h-1.46l.46-3.78h-3l-.45,3.78h-1.46l.46-3.78h-6.33l-.43,3.78h-1.46l.46-3.78h-3l-.45,3.78h-1.46l.46-3.78h-1.6v-1.45h1.77l.62-4.94h-1.64v-1.46h1.81l.45-3.72h1.46l-.49,3.72h3l.45-3.72h1.46l-.48,3.72h6.33l.45-3.72h1.46l-.49,3.72h3l.45-3.72H544l-.48,3.72h1.62v1.46Zm-13.59,0h-3l-.6,4.94h3Zm7.76,0h-6.33l-.6,4.94h6.31Zm4.4,0h-3l-.6,4.94h2.95Z"/><path d="M615.69,526.64h1.64v1.45h-1.84l-.42,3.78h-1.46l.46-3.78h-3l-.45,3.78h-1.46l.46-3.78h-1.6v-1.45h1.77l.62-4.94h-1.64v-1.46h1.81l.45-3.72h1.45l-.48,3.72h3l.44-3.72h1.46l-.47,3.72h1.62v1.46h-1.8Zm-1.45,0,.62-4.94h-3l-.6,4.94Z"/><path d="M627.85,526.64h1.64v1.45h-1.83l-.43,3.78h-1.46l.46-3.78h-3l-.45,3.78h-1.46l.46-3.78h-1.6v-1.45H622l.62-4.94H621v-1.46h1.81l.45-3.72h1.46l-.49,3.72h3l.45-3.72h1.45l-.47,3.72h1.62v1.46h-1.79Zm-1.45,0,.62-4.94h-3l-.6,4.94Z"/><path d="M640,526.64h1.64v1.45h-1.83l-.43,3.78h-1.46l.46-3.78h-2.95l-.45,3.78h-1.46l.46-3.78h-1.6v-1.45h1.77l.62-4.94h-1.64v-1.46H635l.45-3.72h1.46l-.49,3.72h3l.45-3.72h1.46l-.48,3.72h1.62v1.46h-1.79Zm-1.45,0,.62-4.94h-3l-.6,4.94Z"/><path d="M652.17,526.64h1.64v1.45H652l-.43,3.78h-1.46l.46-3.78H647.6l-.45,3.78h-1.46l.46-3.78h-1.6v-1.45h1.77l.62-4.94H645.3v-1.46h1.81l.45-3.72H649l-.49,3.72h3l.45-3.72h1.46l-.48,3.72h1.62v1.46h-1.79Zm-1.45,0,.62-4.94h-3l-.6,4.94Z"/><path d="M664.33,526.64H666v1.45h-1.83l-.43,3.78h-1.46l.46-3.78h-3l-.45,3.78h-1.45l.45-3.78h-1.6v-1.45h1.77l.62-4.94h-1.64v-1.46h1.81l.45-3.72h1.46l-.49,3.72h3l.45-3.72h1.46l-.48,3.72h1.62v1.46h-1.79Zm-1.45,0,.62-4.94h-3l-.6,4.94Z"/><path d="M676.49,526.64h1.64v1.45H676.3l-.43,3.78h-1.46l.46-3.78h-3l-.44,3.78H670l.45-3.78h-1.6v-1.45h1.77l.62-4.94h-1.64v-1.46h1.82l.44-3.72h1.46l-.49,3.72h3l.45-3.72h1.46l-.48,3.72h1.62v1.46h-1.79Zm-1.45,0,.62-4.94h-3l-.6,4.94Z"/><path d="M681,533.49l8.68-19.67,1.36.73-8.66,19.61Z"/><path d="M717.51,533.49l8.67-19.67,1.36.73-8.66,19.61Z"/><path d="M810.86,521.7l-.6,4.94h1.65v1.45h-1.84l-.42,3.78h-1.46l.45-3.78h-2.95l-.44,3.78h-1.46l.45-3.78h-6.33l-.42,3.78H796l.45-3.78h-3l-.44,3.78h-1.46l.45-3.78h-6.33l-.43,3.78h-1.46l.46-3.78h-3l-.44,3.78h-1.46l.45-3.78h-6.33l-.43,3.78H771.7l.46-3.78h-2.95l-.45,3.78H767.3l.46-3.78h-1.6v-1.45h1.77l.62-4.94h-1.64v-1.46h1.81l.45-3.72h1.46l-.49,3.72h3l.45-3.72H775l-.48,3.72h6.33l.45-3.72h1.46l-.49,3.72h3l.45-3.72h1.46l-.48,3.72h6.34l.44-3.72H795l-.49,3.72h3l.45-3.72h1.46l-.48,3.72h6.34l.44-3.72h1.46l-.48,3.72h3l.44-3.72h1.46l-.48,3.72h1.63v1.46Zm-37.91,0h-3l-.6,4.94h3Zm7.76,0h-6.33l-.6,4.94h6.31Zm4.4,0h-3l-.6,4.94h3Zm7.76,0h-6.33l-.6,4.94h6.32Zm4.4,0h-3l-.6,4.94h2.95Zm7.77,0H798.7l-.6,4.94h6.32Zm4.39,0h-3l-.59,4.94h3Z"/><path d="M883.83,521.7l-.6,4.94h1.64v1.45H883l-.43,3.78h-1.46l.46-3.78h-3l-.45,3.78h-1.45l.45-3.78h-6.33l-.43,3.78H869l.46-3.78h-3l-.45,3.78h-1.46l.46-3.78h-1.6v-1.45h1.77l.62-4.94H864.2v-1.46H866l.45-3.72h1.46l-.49,3.72h3l.45-3.72h1.46l-.48,3.72h6.33l.45-3.72h1.46l-.49,3.72h3l.45-3.72h1.46l-.48,3.72h1.62v1.46Zm-13.59,0h-3l-.6,4.94h3Zm7.76,0h-6.33l-.6,4.94h6.31Zm4.4,0h-3l-.6,4.94h2.95Z"/><path d="M899.92,533.49l8.68-19.67,1.36.73-8.66,19.61Z"/><path d="M0,573l8.67-19.68,1.36.74L1.38,573.69Z"/><path d="M80.6,566.16h1.64v1.45H80.41L80,571.39H78.52l.46-3.78H76l-.45,3.78H74.12l.46-3.78H73v-1.45h1.77l.62-4.94H73.73v-1.46h1.81L76,556h1.46L77,559.76h3l.44-3.72h1.46l-.47,3.72H83v1.46H81.2Zm-1.45,0,.62-4.94h-3l-.6,4.94Z"/><path d="M92.76,566.16H94.4v1.45H92.57l-.43,3.78H90.68l.46-3.78h-3l-.45,3.78H86.28l.46-3.78h-1.6v-1.45h1.77l.62-4.94H85.89v-1.46H87.7l.45-3.72h1.46l-.49,3.72h3l.45-3.72H94l-.48,3.72h1.62v1.46H93.36Zm-1.45,0,.62-4.94H89l-.6,4.94Z"/><path d="M104.92,566.16h1.64v1.45h-1.83l-.43,3.78h-1.46l.46-3.78h-3l-.45,3.78H98.44l.46-3.78H97.3v-1.45h1.77l.62-4.94H98.05v-1.46h1.81l.45-3.72h1.46l-.49,3.72h3l.45-3.72h1.46l-.48,3.72h1.62v1.46h-1.79Zm-1.45,0,.62-4.94h-3l-.6,4.94Z"/><path d="M117.08,566.16h1.64v1.45h-1.83l-.43,3.78H115l.46-3.78h-2.95l-.45,3.78h-1.45l.45-3.78h-1.6v-1.45h1.77l.62-4.94h-1.64v-1.46H112l.45-3.72h1.46l-.49,3.72h3l.45-3.72h1.46l-.48,3.72h1.62v1.46h-1.79Zm-1.45,0,.62-4.94h-3l-.6,4.94Z"/><path d="M129.24,566.16h1.64v1.45h-1.83l-.43,3.78h-1.46l.46-3.78h-3l-.44,3.78h-1.46l.45-3.78h-1.6v-1.45h1.77l.62-4.94h-1.64v-1.46h1.82l.44-3.72h1.46l-.49,3.72h3L129,556h1.46l-.48,3.72h1.62v1.46h-1.79Zm-1.45,0,.62-4.94h-3l-.6,4.94Z"/><path d="M170.26,573l8.67-19.68,1.36.74-8.66,19.61Z"/><path d="M263.61,561.22l-.6,4.94h1.65v1.45h-1.84l-.42,3.78h-1.46l.45-3.78h-2.95l-.44,3.78h-1.46l.45-3.78h-6.33l-.42,3.78h-1.46l.45-3.78h-2.95l-.44,3.78h-1.46l.45-3.78h-1.6v-1.45H245l.61-4.94H244v-1.46h1.82l.44-3.72h1.46l-.49,3.72h3l.45-3.72h1.46l-.48,3.72H258l.44-3.72h1.46l-.48,3.72h3l.44-3.72h1.46l-.48,3.72h1.63v1.46Zm-13.59,0h-3l-.6,4.94h3Zm7.77,0h-6.34l-.6,4.94h6.32Zm4.39,0h-3l-.59,4.94h2.95Z"/><path d="M348.14,566.16h1.64v1.45H348l-.43,3.78h-1.46l.46-3.78h-2.95l-.44,3.78h-1.46l.45-3.78h-1.6v-1.45h1.77l.62-4.94h-1.64v-1.46h1.82l.44-3.72H345l-.49,3.72h3l.45-3.72h1.46l-.48,3.72h1.62v1.46h-1.79Zm-1.45,0,.62-4.94h-3l-.6,4.94Z"/><path d="M352.67,573l8.68-19.68,1.36.74-8.66,19.61Z"/><path d="M377,573l8.68-19.68,1.36.74-8.66,19.61Z"/><path d="M458.19,561.22l-.6,4.94h1.64v1.45H457.4l-.43,3.78h-1.46l.46-3.78h-3l-.44,3.78h-1.46l.45-3.78h-6.33l-.43,3.78h-1.46l.46-3.78h-2.95l-.45,3.78H439l.45-3.78h-1.6v-1.45h1.77l.62-4.94h-1.64v-1.46h1.81l.45-3.72h1.46l-.49,3.72h3l.45-3.72h1.46l-.48,3.72h6.34L453,556h1.46l-.49,3.72h3l.45-3.72h1.46l-.48,3.72H460v1.46Zm-13.59,0h-3l-.6,4.94h3Zm7.76,0H446l-.6,4.94h6.31Zm4.4,0h-3l-.6,4.94h2.95Z"/><path d="M530.56,566.16h1.64v1.45h-1.83l-.43,3.78h-1.46l.46-3.78h-3l-.45,3.78h-1.46l.46-3.78h-1.6v-1.45h1.77l.62-4.94h-1.64v-1.46h1.81L526,556h1.46l-.49,3.72h3l.45-3.72h1.46l-.48,3.72H533v1.46h-1.79Zm-1.45,0,.62-4.94h-3l-.6,4.94Z"/><path d="M664.93,561.22l-.6,4.94H666v1.45h-1.83l-.43,3.78h-1.46l.46-3.78h-3l-.45,3.78h-1.45l.45-3.78H652l-.43,3.78h-1.46l.46-3.78H647.6l-.45,3.78h-1.46l.46-3.78h-6.33l-.43,3.78h-1.46l.46-3.78h-2.95l-.45,3.78h-1.46l.46-3.78h-1.6v-1.45h1.77l.62-4.94h-1.64v-1.46H635l.45-3.72h1.46l-.49,3.72h3l.45-3.72h1.45l-.47,3.72h6.33l.45-3.72H649l-.49,3.72h3L652,556h1.46l-.48,3.72h6.33l.45-3.72h1.46l-.49,3.72h3l.45-3.72h1.46l-.48,3.72h1.62v1.46Zm-25.75,0h-3l-.6,4.94h2.95Zm7.76,0h-6.33l-.6,4.94h6.31Zm4.4,0h-3l-.6,4.94h3Zm7.76,0h-6.33l-.6,4.94h6.31Zm4.4,0h-3l-.6,4.94h3Z"/><path d="M705.34,573,714,553.34l1.36.74-8.66,19.61Z"/><path d="M798.7,561.22l-.6,4.94h1.64v1.45h-1.83l-.42,3.78H796l.45-3.78h-3l-.44,3.78h-1.46l.45-3.78h-6.33l-.43,3.78h-1.46l.46-3.78h-3l-.44,3.78h-1.46l.45-3.78h-1.6v-1.45h1.77l.62-4.94h-1.64v-1.46h1.81l.45-3.72h1.46l-.49,3.72h3l.45-3.72h1.46l-.48,3.72h6.34l.44-3.72H795l-.48,3.72h3l.45-3.72h1.46l-.48,3.72h1.63v1.46Zm-13.59,0h-3l-.6,4.94h3Zm7.76,0h-6.33l-.6,4.94h6.32Zm4.4,0h-3l-.59,4.94h2.94Z"/><path d="M883.23,566.16h1.64v1.45H883l-.43,3.78h-1.46l.46-3.78h-3l-.45,3.78h-1.45l.45-3.78h-1.6v-1.45h1.77l.62-4.94h-1.64v-1.46h1.81l.45-3.72h1.46l-.49,3.72h3L883,556h1.46l-.48,3.72h1.62v1.46h-1.79Zm-1.45,0,.62-4.94h-3l-.6,4.94Z"/><path d="M887.76,573l8.68-19.68,1.35.74-8.65,19.61Z"/><path d="M5.77,617.6H4.25V590.85H5.77Z"/><path d="M177.89,605.69h1.64v1.45h-1.84l-.42,3.78h-1.46l.46-3.78h-3l-.45,3.78h-1.46l.46-3.78h-1.6v-1.45H172l.62-4.94H171v-1.46h1.81l.45-3.73h1.45l-.48,3.73h3l.44-3.73h1.46l-.47,3.73h1.62v1.46h-1.8Zm-1.45,0,.62-4.94h-3l-.6,4.94Z"/><path d="M384.63,605.69h1.64v1.45h-1.84l-.42,3.78h-1.46l.45-3.78h-2.95l-.44,3.78h-1.46l.46-3.78H377v-1.45h1.78l.62-4.94h-1.65v-1.46h1.82l.44-3.73h1.46l-.48,3.73h3l.44-3.73h1.46l-.47,3.73H387v1.46h-1.8Zm-1.45,0,.61-4.94h-3l-.6,4.94Z"/><path d="M713,605.69h1.64v1.45h-1.84l-.42,3.78H710.9l.45-3.78h-3l-.44,3.78H706.5l.46-3.78h-1.61v-1.45h1.78l.62-4.94H706.1v-1.46h1.82l.44-3.73h1.46l-.48,3.73h3l.44-3.73h1.46l-.47,3.73h1.62v1.46h-1.8Zm-1.45,0,.61-4.94h-3l-.6,4.94Z"/><path d="M13.52,632.39l8.67,19.68-1.37.67-8.66-19.61Z"/><path d="M30.65,638.67a10.47,10.47,0,0,0-1.39-3,20.14,20.14,0,0,0-2.49-2.88l.9-1a21,21,0,0,1,2.9,3.12,11.68,11.68,0,0,1,1.72,3.44,16,16,0,0,1,0,8.74,11.81,11.81,0,0,1-1.72,3.44,20.49,20.49,0,0,1-2.9,3.11l-.9-1a19.45,19.45,0,0,0,2.47-2.88,10.18,10.18,0,0,0,1.4-3.06,14.63,14.63,0,0,0,.47-4A15,15,0,0,0,30.65,638.67Z"/><path d="M202.81,640.27l-.6,4.94h1.64v1.45H202l-.43,3.78h-1.46l.46-3.78h-3l-.45,3.78h-1.46l.46-3.78h-6.33l-.43,3.78H188l.46-3.78h-3l-.45,3.78h-1.46l.46-3.78h-1.6v-1.45h1.77l.62-4.94h-1.64v-1.46H185l.45-3.72h1.46l-.49,3.72h3l.44-3.72h1.46l-.47,3.72h6.33l.45-3.72h1.46l-.49,3.72h3l.45-3.72h1.46l-.48,3.72h1.62v1.46Zm-13.59,0h-3l-.6,4.94h2.95Zm7.76,0h-6.33l-.6,4.94h6.31Zm4.4,0h-3l-.6,4.94h2.95Z"/><path d="M409.55,640.27l-.6,4.94h1.64v1.45h-1.83l-.43,3.78h-1.46l.46-3.78h-2.95l-.45,3.78h-1.46l.46-3.78h-6.34l-.42,3.78h-1.46l.45-3.78h-2.94l-.45,3.78h-1.46l.46-3.78h-1.6v-1.45h1.77l.62-4.94h-1.64v-1.46h1.81l.45-3.72h1.45l-.48,3.72h3l.44-3.72H398l-.47,3.72h6.33l.45-3.72h1.46l-.49,3.72h3l.45-3.72h1.45l-.47,3.72h1.62v1.46Zm-13.59,0h-3l-.6,4.94h2.95Zm7.76,0h-6.34l-.59,4.94h6.31Zm4.4,0h-3l-.6,4.94h2.95Z"/><path d="M737.9,640.27l-.6,4.94h1.64v1.45h-1.83l-.43,3.78h-1.46l.46-3.78h-2.95l-.45,3.78h-1.46l.46-3.78h-6.34l-.42,3.78h-1.46l.45-3.78h-2.94l-.45,3.78h-1.46l.46-3.78h-1.6v-1.45h1.77l.62-4.94h-1.64v-1.46h1.81l.45-3.72H722l-.48,3.72h3l.44-3.72h1.46l-.47,3.72h6.33l.45-3.72h1.46l-.49,3.72h3l.44-3.72h1.46l-.47,3.72h1.62v1.46Zm-13.59,0h-3l-.6,4.94h3Zm7.76,0h-6.34l-.59,4.94h6.31Zm4.4,0h-3l-.6,4.94h3Z"/></g></g></svg>