<svg id="Layer_1" data-name="Layer 1" xmlns="http://www.w3.org/2000/svg" viewBox="0 0 1000 1696.97"><defs><style>.cls-1{fill:blue;}</style></defs><g id="Logo"><path class="cls-1" d="M748,931.31H737.8L612.66,1057l.07,0-14.55,14.56-27,27V881.62Q587.61,865.36,604,849c15.85-15.86,31.7-31.73,47.37-47.77l10.39-10.65a128.33,128.33,0,0,0,8.84-9.53H571.15V740.11h29.59c1.71,0,4.17.46,5.81,0,.31-.09.69.07,1,0,1.41-.31,10.14-9.18,10.69-9.86,20.46-19.82,40.55-40,60.7-60.06,4.08-4.1,8.17-8.18,12.27-12.29q38.29-38.26,76.57-76.57L927,422.16c1-1.06,2.08-2.09,3.11-3.14,16.64-16.64,33.28-33.3,49.75-50.14l10.88-11.19a132.66,132.66,0,0,0,9.29-10H571.15V0L516.24,54.84,499.8,71.26l-3.58,3.57-66.33,66.28V347.7H140.38l-81.9,82.4-2.11,2.11L36.24,452.47l-2.65,2.68L0,488.94H429.89V598.85H141.33l-1,1-18.84,18.7-.26.29-6.61,6.54Q92.67,647,71,668.77c-16.64,16.66-33.28,33.32-49.74,50.16-3.63,3.73-7.27,7.44-10.89,11.17a133.09,133.09,0,0,0-9.29,10V915.53l.31.31,12,12,23.3,23.27,164,164.05q88.46,88.44,176.94,176.91l-56.08,56.08L128.2,1541.43h21.94l238.42-238.38q20.65,20.65,41.33,41.31V1697l141.26-141.65v-82.83H858.74c3,0,21.25-20.13,21.25-20.21q25.18-24.71,50.09-49.72c16.64-16.64,33.28-33.31,49.75-50.14l10.88-11.2a127.12,127.12,0,0,0,9.29-10V931.31H748ZM571.15,488.94H752.69c27.42,0,54.93.55,82.38.35L725.5,598.85H571.15Zm-199,515.21Q269.9,901.91,167.67,799.67l-25.38-25.38V740.11h287.6V815q-16.47,16.28-32.83,32.64c-15.85,15.86-31.7,31.73-47.37,47.76l-10.38,10.66a128.33,128.33,0,0,0-8.85,9.52h99.43v146.27Zm486.55,68.42c.7.71,0,5.75,0,6.68v252H704.42c-1.5,0-3.95.44-5.32-.15-4.19-1.82-8.91-8.89-12.07-12.07l-71.63-71.63-44.25-44.26V1120.5l47.93-47.93H846.84C848.4,1072.57,857.51,1071.34,858.72,1072.57Z"/><path class="cls-1" d="M934,33.49C934,14.33,946.8,0,967,0s33,14.33,33,33.49S987.28,66.9,967,66.9,934,52.66,934,33.49Zm60.63,0c0-16.47-10.12-29-27.59-29s-27.67,12.54-27.67,29S949.49,62.42,967,62.42,994.63,49.88,994.63,33.49Zm-27.5-11.28c-4.92,0-7.25,4.12-7.25,11.28s2.33,11.2,7.25,11.2c4.75,0,6-3.13,6.36-6.54H985c-.53,8.87-6.62,15.41-17.46,15.41-12,0-19.52-8.24-19.52-20.07s7.16-20.15,18.8-20.15c11,0,17.29,6.54,18.18,15.32H973.49C973.13,25.61,971.88,22.21,967.13,22.21Z"/></g></svg>